<?xml version="1.0" encoding="UTF-8" standalone="no"?>
<!-- Created with Inkscape (http://www.inkscape.org/) -->

<svg
   xmlns:dc="http://purl.org/dc/elements/1.1/"
   xmlns:cc="http://creativecommons.org/ns#"
   xmlns:rdf="http://www.w3.org/1999/02/22-rdf-syntax-ns#"
   xmlns:svg="http://www.w3.org/2000/svg"
   xmlns="http://www.w3.org/2000/svg"
   xmlns:xlink="http://www.w3.org/1999/xlink"
   xmlns:sodipodi="http://sodipodi.sourceforge.net/DTD/sodipodi-0.dtd"
   xmlns:inkscape="http://www.inkscape.org/namespaces/inkscape"
   width="744.09448819"
   height="1052.3622047"
   id="svg6411"
   version="1.1"
   inkscape:version="0.47 r22583"
   sodipodi:docname="bell.svg">
  <defs
     id="defs6413">
    <inkscape:perspective
       sodipodi:type="inkscape:persp3d"
       inkscape:vp_x="0 : 526.18109 : 1"
       inkscape:vp_y="0 : 1000 : 0"
       inkscape:vp_z="744.09448 : 526.18109 : 1"
       inkscape:persp3d-origin="372.04724 : 350.78739 : 1"
       id="perspective6419" />
    <inkscape:perspective
       id="perspective6489"
       inkscape:persp3d-origin="0.5 : 0.33333333 : 1"
       inkscape:vp_z="1 : 0.5 : 1"
       inkscape:vp_y="0 : 1000 : 0"
       inkscape:vp_x="0 : 0.5 : 1"
       sodipodi:type="inkscape:persp3d" />
    <inkscape:perspective
       id="perspective7039"
       inkscape:persp3d-origin="0.5 : 0.33333333 : 1"
       inkscape:vp_z="1 : 0.5 : 1"
       inkscape:vp_y="0 : 1000 : 0"
       inkscape:vp_x="0 : 0.5 : 1"
       sodipodi:type="inkscape:persp3d" />
    <inkscape:perspective
       id="perspective7094"
       inkscape:persp3d-origin="0.5 : 0.33333333 : 1"
       inkscape:vp_z="1 : 0.5 : 1"
       inkscape:vp_y="0 : 1000 : 0"
       inkscape:vp_x="0 : 0.5 : 1"
       sodipodi:type="inkscape:persp3d" />
    <inkscape:perspective
       id="perspective7117"
       inkscape:persp3d-origin="0.5 : 0.33333333 : 1"
       inkscape:vp_z="1 : 0.5 : 1"
       inkscape:vp_y="0 : 1000 : 0"
       inkscape:vp_x="0 : 0.5 : 1"
       sodipodi:type="inkscape:persp3d" />
  </defs>
  <sodipodi:namedview
     id="base"
     pagecolor="#ffffff"
     bordercolor="#666666"
     borderopacity="1.0"
     inkscape:pageopacity="0.0"
     inkscape:pageshadow="2"
     inkscape:zoom="1"
     inkscape:cx="444.1826"
     inkscape:cy="520.79423"
     inkscape:document-units="px"
     inkscape:current-layer="layer2"
     showgrid="false"
     inkscape:window-width="1812"
     inkscape:window-height="1147"
     inkscape:window-x="44"
     inkscape:window-y="15"
     inkscape:window-maximized="0" />
  <metadata
     id="metadata6416">
    <rdf:RDF>
      <cc:Work
         rdf:about="">
        <dc:format>image/svg+xml</dc:format>
        <dc:type
           rdf:resource="http://purl.org/dc/dcmitype/StillImage" />
        <dc:title></dc:title>
      </cc:Work>
    </rdf:RDF>
  </metadata>
  <g
     inkscape:label="Layer 1"
     inkscape:groupmode="layer"
     id="layer1"
     style="display:none">
    <image
       y="247.86218"
       x="158.5"
       id="image6491"
       height="569"
       width="433"
       xlink:href="file:///home/justin/able/inkscape_pasted_image_20110102_112138.png" />
    <path
       id="path6511"
       d="m 137.5,530.36218 0,-284.5 216.5,0 216.5,0 0,284.5 0,284.5 -216.5,0 -216.5,0 0,-284.5 z"
       style="fill:#fefefe" />
    <path
       id="path6509"
       d="m 340.40333,723.48745 c -4.85257,-1.45654 -9.011,-5.42855 -14.98285,-14.31115 -7.81965,-11.63105 -11.09389,-19.02252 -11.00604,-24.84575 0.0982,-6.50678 3.12496,-15.4919 6.2872,-18.66372 1.45997,-1.46439 3.42713,-3.84568 4.37148,-5.29176 1.56856,-2.40193 1.57715,-2.68291 0.0993,-3.25 -0.88972,-0.34142 -9.56837,-0.62019 -19.28589,-0.61948 -9.71751,7e-4 -21.26821,-0.43103 -25.66821,-0.95939 -4.4,-0.52836 -18.125,-1.48528 -30.5,-2.12647 -29.49127,-1.52806 -31.27723,-1.65273 -39.5,-2.75741 -3.85,-0.51723 -10.825,-0.76458 -15.5,-0.54968 -13.10112,0.60224 -36.60208,-4.12827 -41.20542,-8.29423 -2.76818,-2.50517 -2.17772,-7.12361 1.94038,-15.17733 4.66636,-9.12593 16.3777,-23.25696 20.44298,-24.66673 5.79074,-2.00812 28.27437,-24.98145 33.75257,-34.4877 6.60461,-11.46088 8.66633,-15.57045 11.53001,-22.98234 7.18879,-18.60634 8.61596,-24.21337 14.99589,-58.91544 4.06529,-22.11219 5.7306,-32.1158 8.58732,-51.58456 0.64563,-4.4 1.79991,-9.21515 2.56507,-10.70034 0.76516,-1.48519 1.3912,-4.58667 1.3912,-6.89219 0,-9.75463 7.01748,-25.20818 13.10097,-28.8503 1.43053,-0.85644 3.68053,-2.31154 5,-3.23355 3.34166,-2.33506 12.68484,-4.57265 24.43379,-5.85165 6.54388,-0.71236 10.35387,-1.59063 11.0972,-2.55809 0.62257,-0.8103 1.43953,-6.74741 1.81546,-13.19358 0.37594,-6.44616 0.91756,-12.53358 1.20362,-13.52758 0.82867,-2.87955 4.14544,-3.52295 19.46087,-3.77507 7.91345,-0.13027 15.34362,-0.58224 16.51148,-1.00437 1.16787,-0.42213 3.07318,-2.30428 4.23402,-4.18256 1.97308,-3.19251 2.09821,-4.64717 1.92021,-22.32289 -0.41289,-41.00389 -0.12632,-42.60783 7.61259,-42.60783 2.0954,0 4.1894,0.3825 4.65334,0.85 0.46393,0.4675 1.1163,15.0104 1.4497,32.31755 0.41598,21.59396 0.98954,32.26216 1.82796,34 l 1.22177,2.53245 15.81346,0 c 19.74828,0 19.16402,-0.44359 20.07439,15.2412 0.76367,13.15728 1.77866,15.5108 7.10664,16.47853 24.37546,4.4274 31.46256,6.42271 31.46256,8.85797 0,0.56449 1.32298,1.48753 2.93996,2.05122 5.61403,1.95706 11.99537,13.31082 14.0558,25.00825 0.61642,3.49956 1.58347,8.38783 2.14898,10.86283 0.56552,2.475 1.62752,8.775 2.35999,14 0.73248,5.225 2.22894,14.45 3.32547,20.5 1.09653,6.05 3.20971,18.425 4.69596,27.5 6.5068,39.73048 16.06855,68.31022 28.58549,85.44106 4.358,5.96441 23.60909,25.38687 30.92166,31.19692 11.9105,9.46324 22.87191,25.32021 23.73867,34.34079 0.44435,4.6244 0.31966,4.92248 -2.71558,6.49206 -1.74971,0.90482 -7.0907,2.497 -11.86885,3.53818 -9.49337,2.06865 -38.00742,5.75256 -45.18755,5.83807 -2.475,0.0295 -10.125,0.5244 -17,1.09984 -14.53409,1.21651 -43.93784,2.69734 -72.75,3.66383 -11.1375,0.3736 -20.25,0.97575 -20.25,1.3381 0,0.36235 1.6133,2.20959 3.58511,4.10498 1.97181,1.89539 4.78431,5.47117 6.25,7.94617 2.33327,3.94002 2.66151,5.55774 2.63775,13 -0.024,7.51323 -0.40128,9.26583 -3.25,15.09684 -1.77257,3.62827 -3.22286,6.85895 -3.22286,7.17929 0,1.59403 -8.18215,12.6132 -10.48731,14.1236 -5.77592,3.78453 -28.71994,6.01703 -36.82771,3.58341 z"
       style="fill:#ffffbf;fill-opacity:1" />
    <path
       id="path6507"
       d="m 337.28036,721.55535 c -3.28281,-1.71793 -5.89408,-4.46067 -10.23473,-10.75 -9.2684,-13.42936 -12.07364,-19.5009 -11.98676,-25.94362 0.0978,-7.25664 2.73801,-14.67814 6.75914,-19 1.79106,-1.925 4.00343,-4.61946 4.9164,-5.98768 1.58551,-2.37616 1.55859,-2.56569 -0.6007,-4.22777 -1.87539,-1.44355 -1.96727,-1.74387 -0.53914,-1.76231 2.63228,-0.034 12.09584,-4.47774 13.71818,-6.44155 1.30405,-1.57853 2.81264,-8.12588 3.35269,-14.55091 0.37872,-4.50553 -8.20101,-6.98167 -34.79236,-10.04119 -44.60157,-5.13171 -85.87545,-2.91289 -102.49743,5.51011 -6.46788,3.27752 -14.00257,12.41626 -14.00257,16.98356 0,3.02121 -0.29255,3.33308 -3.47512,3.70463 -5.04204,0.58863 -22.04724,-2.51371 -29.02488,-5.29516 -5.14856,-2.05233 -6.04597,-2.79305 -6.32396,-5.21979 -0.79436,-6.93466 12.76837,-27.28328 22.66711,-34.00821 6.96479,-4.73168 23.57408,-21.14906 30.01049,-29.66373 14.32778,-18.9541 22.95347,-42.43251 30.12582,-82 1.74472,-9.625 4.00586,-22 5.02477,-27.5 1.01891,-5.5 2.81961,-16.50219 4.00155,-24.44931 1.18195,-7.94712 2.82579,-15.75809 3.65298,-17.3577 0.8272,-1.59962 1.24464,-3.94176 0.92764,-5.20475 -0.77923,-3.10471 3.35102,-16.99938 6.80519,-22.89346 1.80499,-3.07999 3.96544,-5.26384 6.08255,-6.14842 1.80581,-0.75452 3.52795,-2.00941 3.82697,-2.78866 0.78041,-2.0337 8.67453,-4.47374 18.61231,-5.75298 4.72262,-0.60792 10.83292,-1.40132 13.57844,-1.76312 l 4.99186,-0.65781 0.7192,-4.49189 c 0.39556,-2.47055 0.99765,-8.79848 1.33798,-14.06207 0.34033,-5.26359 0.97806,-10.1515 1.41718,-10.86201 1.26264,-2.04298 8.4538,-2.97727 23.27773,-3.02427 l 13.73581,-0.0435 2.61586,-3.95282 2.61585,-3.95282 0.14834,-29.13507 0.14833,-29.13512 2.36078,-1.91211 c 2.75913,-2.23475 4.14247,-2.37771 6.40669,-0.66211 1.44872,1.09769 1.71281,4.97033 2.16733,31.78249 0.53336,31.46271 1.14401,36.38167 4.65481,37.49595 1.05735,0.33559 8.418,0.46648 16.357,0.29086 10.76456,-0.23812 14.76325,0.007 15.72736,0.96409 0.77992,0.77423 1.76679,6.4841 2.48754,14.3924 0.79422,8.71452 1.67672,13.59101 2.63255,14.54685 0.79081,0.7908 5.66066,2.0423 10.82189,2.78109 17.84143,2.55388 23.20482,4.15199 25.69075,7.65497 0.71869,1.01271 1.86792,1.8413 2.55384,1.8413 5.19785,0 14.58936,19.14298 14.62756,29.81574 0.01,1.82366 0.4446,4.12419 0.9734,5.1123 0.5288,0.98811 1.6764,6.69602 2.5501,12.68426 3.8132,26.13332 12.7203,75.57239 15.2035,84.3877 4.8912,17.36346 7.8216,25.16011 14.4704,38.5 7.0409,14.12658 15.9352,24.18896 43.1694,48.83907 8.7338,7.90505 15.3467,17.26937 18.375,26.02017 1.7583,5.08107 1.0015,7.02042 -3.5023,8.97456 -7.5778,3.28794 -37.0172,7.5017 -56.2276,8.04807 -7.425,0.21118 -20.925,1.08428 -30,1.94023 -9.075,0.85596 -30,2.06607 -46.5,2.68916 -16.5,0.62308 -31.0587,1.34562 -32.35267,1.60563 -2.24638,0.45139 -2.12713,0.71122 2.63957,5.7513 9.00761,9.52422 11.5448,17.48306 8.71729,27.34496 -0.91253,3.18277 -2.52429,7.27507 -3.58167,9.09401 -1.05739,1.81894 -1.92252,3.77625 -1.92252,4.34957 0,2.71861 -8.62248,14.12019 -11.96991,15.82792 -5.04832,2.57546 -13.85419,4.01535 -24.55647,4.01535 -7.62401,0 -9.89771,-0.38655 -13.56634,-2.30638 z m -0.40728,-37.69362 c -0.33992,-0.55 -1.29303,-1 -2.11803,-1 -0.825,0 -1.22189,0.45 -0.88197,1 0.33992,0.55 1.29303,1 2.11803,1 0.825,0 1.22189,-0.45 0.88197,-1 z m -7.75,-73.46384 c 1.7875,-0.41974 3.25,-0.95531 3.25,-1.19015 0,-0.23485 -1.0125,-1.8004 -2.25,-3.47901 l -2.25,-3.05202 2.5,-1.9323 c 16.24302,-12.55455 16.9369,-13.54415 15.15584,-21.61502 -0.57867,-2.62221 -1.32705,-8.81766 -1.66307,-13.76766 -0.33602,-4.95 -1.70935,-14.54226 -3.05186,-21.31614 -1.3425,-6.77387 -2.45694,-14.64887 -2.47653,-17.5 -0.0196,-2.85112 -0.60968,-7.65886 -1.31131,-10.68386 -1.02358,-4.41304 -1.03858,-9.45259 -0.0759,-25.5 0.65988,-11 1.00649,-26.83872 0.77024,-35.19716 -0.32735,-11.58189 -0.0629,-16.61195 1.11153,-21.14435 0.84759,-3.27095 1.54107,-6.18483 1.54107,-6.47528 0,-2.24778 -15.9934,-3.70836 -42.5,-3.88126 -13.44052,-0.0877 -18.00188,0.23552 -21.78495,1.54358 -2.63172,0.90996 -5.86389,1.65447 -7.18261,1.65447 -2.79175,0 -3.13425,0.89682 -4.01006,10.5 -2.71863,29.80976 -13.44453,92.12051 -20.55247,119.39691 -3.99868,15.34475 -3.99173,22.76358 0.0293,31.2633 1.64957,3.48689 2.99957,7.8122 3,9.61181 6.8e-4,2.80906 -0.66362,3.69339 -4.69499,6.25 -2.58268,1.63789 -5.39518,2.99166 -6.25,3.00839 -1.37924,0.027 -1.38326,0.13058 -0.0357,0.92015 0.83519,0.48936 8.71019,1.38244 17.5,1.98463 8.78981,0.60219 17.78147,1.2449 19.98147,1.42825 7.36082,0.61347 51.95821,-0.0543 55.25,-0.82728 z m 12.11701,-195.28616 c 2.87539,-5.65231 6.29263,-17.49036 5.32749,-18.4555 -1.88429,-1.88429 -14.7664,-3.05856 -34.1945,-3.11701 -22.06126,-0.0664 -31.47411,1.09979 -36.23385,4.48903 -3.336,2.37543 -6.47377,8.15286 -7.32749,13.49171 -0.33788,2.11298 -0.6873,4.29177 -0.77649,4.84177 -0.28673,1.76808 7.18308,2.21326 39.56751,2.35809 l 31.72967,0.14191 1.90766,-3.75 z m -14.86701,-26.25 c 0,-0.62691 -5.31654,-0.94396 -14.25,-0.84981 -9.54064,0.10056 -12.76284,0.38141 -9.75,0.84981 7.22897,1.12388 24,1.12388 24,0 z m 14.90106,-11.63021 c 2.62058,-0.52412 3.04121,-0.97634 2.49851,-2.6862 -0.35889,-1.13079 -0.76331,-6.1347 -0.8987,-11.11979 -0.21292,-7.83986 0.0209,-9.35773 1.7319,-11.24046 l 1.97806,-2.17666 -15.19295,0.34753 c -8.35613,0.19114 -15.37821,0.53279 -15.60464,0.75921 -0.22642,0.22643 -0.64191,5.86573 -0.9233,12.53178 l -0.51163,12.1201 3.76084,0.61394 c 2.06847,0.33767 4.43585,0.75677 5.26085,0.93135 2.84364,0.60173 14.75728,0.54795 17.90106,-0.0808 z"
       style="fill:#e8bd00;fill-opacity:1" />
    <path
       id="path6505"
       d="m -472.23637,194.80076 c -5.20967,-1.09527 -10.09788,-5.61214 -16.04108,-14.82251 -8.7881,-13.61923 -10.59822,-18.24773 -9.86812,-25.23293 0.33749,-3.22902 1.25501,-7.40596 2.03891,-9.28211 2.23241,-5.3429 13.55485,-18.55317 16.51686,-19.27076 1.42439,-0.34508 4.92072,-1.64682 7.76961,-2.89277 5.04573,-2.20672 8.32019,-6.08353 8.32019,-9.85071 0,-0.8319 1.85116,-3.2913 4.1137,-5.46535 l 4.11369,-3.9528 -3.86369,-2.40707 c -6.89605,-4.2962 -18.28564,-6.73941 -45.8637,-9.83832 -36.86623,-4.14262 -68.29508,-3.5564 -94,1.75332 -17.94639,3.70708 -24.01226,7.04202 -30.10904,16.55356 -2.85442,4.45316 -2.9371,5.49632 -0.64096,8.08648 1.72878,1.95014 1.66511,1.96583 -5.25,1.29352 -8.24116,-0.80123 -18.82465,-3.26531 -22.87015,-5.32469 -2.64594,-1.34693 -2.83147,-1.80432 -2.37492,-5.85483 0.94488,-8.38296 13.81359,-26.29242 23.10825,-32.15987 5.18041,-3.27026 20.49255,-18.13126 26.79411,-26.00471 12.91564,-16.13734 23.46877,-40.95687 29.23896,-68.76603 2.74441,-13.22654 10.71543,-59.12212 12.59088,-72.49575 0.65527,-4.67267 1.82623,-10.01512 2.60213,-11.87213 0.77591,-1.857 1.41074,-4.94396 1.41074,-6.8599 0,-11.7779 8.72539,-29.27222 14.59967,-29.27222 0.73148,0 1.77071,-0.82354 2.3094,-1.83009 1.48811,-2.78056 10.03236,-5.0613 23.47031,-6.265 6.66634,-0.59713 12.50556,-1.45245 12.97603,-1.90072 1.05097,-1.00133 2.54121,-13.3574 2.60068,-21.56306 0.0723,-9.98066 -0.17774,-9.85854 21.38155,-10.44113 10.1766,-0.275 18.69915,-0.725 18.939,-1 0.23985,-0.275 1.20163,-2.54525 2.13729,-5.045 1.43329,-3.82922 1.73151,-8.96282 1.89364,-32.59659 0.20905,-30.47413 0.44035,-31.75954 5.60683,-31.15897 l 2.5856,0.30056 0.56304,29.5 c 0.59891,31.37899 1.48444,38.15227 5.25161,40.1684 1.40777,0.75341 6.57747,0.88327 16.31564,0.40983 13.54427,-0.65847 14.35748,-0.59046 16.31231,1.36437 1.58314,1.58314 2.06924,3.38286 2.10875,7.8074 0.0886,9.92603 1.47453,19.20445 3.11327,20.8432 1.01139,1.01138 5.5067,2.04488 12.82689,2.94896 14.03554,1.73347 21.62294,3.86892 23.01971,6.47881 0.58253,1.08847 1.69665,1.97903 2.47583,1.97903 2.64261,0 8.34862,7.12078 10.98687,13.711 1.44473,3.60888 2.89075,9.53777 3.21338,13.1753 0.32262,3.63754 0.923,7.0637 1.33417,7.6137 1.03703,1.38718 1.78872,5.22564 3.9392,20.11541 2.917,20.19711 10.87914,63.88645 13.5981,74.61463 5.55984,21.93749 15.0106,44.26786 23.39158,55.26996 6.58872,8.64931 19.20801,21.57438 28.54965,29.24145 10.89141,8.93903 17.13324,16.19904 21.90866,25.48243 4.48619,8.72114 4.65581,12.1743 0.69852,14.2207 -3.907,2.02038 -27.46817,5.55426 -30.89394,4.63369 L -300,118.21136 l 2.85287,-0.71946 c 2.66943,-0.6732 2.80911,-0.95771 2.17219,-4.42459 -0.37438,-2.03782 -1.09567,-4.13263 -1.60288,-4.65513 -0.5072,-0.5225 -0.92218,-1.75044 -0.92218,-2.72875 0,-2.36749 -12.84809,-10.82125 -16.44622,-10.82125 -1.4963,0 -6.39553,-1.0125 -10.88717,-2.25 -7.73579,-2.1313 -9.88113,-2.24477 -40.66661,-2.15093 -28.9961,0.0884 -33.56198,0.32565 -42.35024,2.20067 -9.79595,2.09001 -14.27234,4.05315 -15.29016,6.70554 -0.66082,1.72206 2.50654,6.23033 4.9593,7.05883 1.00039,0.33792 4.37539,3.19404 7.5,6.34693 7.27346,7.33931 9.19846,8.47478 17.99,10.61157 3.98294,0.96806 7.00498,1.99684 6.71563,2.2862 -0.64028,0.64027 -33.56742,3.09434 -42.27453,3.15072 -7.67181,0.0497 -7.89999,1.01883 -1.66748,7.08226 6.98085,6.79148 8.87232,11.04994 8.86477,19.95821 -0.005,6.38439 -0.48539,8.49785 -3.22682,14.2083 -1.77126,3.68956 -3.22047,6.94333 -3.22047,7.23058 0,0.28726 -1.58738,3.00376 -3.52751,6.03668 -3.88199,6.06853 -5.90286,7.70654 -12.2865,9.95882 -4.64501,1.63885 -23.5942,2.62437 -28.92236,1.5042 z m 4.05723,-38.01772 c -1.37926,-1.37926 -6.90045,-2.55859 -16.07086,-3.43275 -6.00681,-0.57259 -7.25,-0.44059 -7.25,0.76976 0,1.82051 7.76734,3.42773 17.45,3.61076 4.97313,0.094 6.64305,-0.17558 5.87086,-0.94777 z m -5.93015,-71.87114 c 2.13989,-0.49641 4.58481,-1.59667 5.43316,-2.44502 1.38993,-1.38993 1.37601,-1.72635 -0.14071,-3.40231 -2.65484,-2.93356 -2.07792,-4.37435 4.26476,-10.65085 8.22553,-8.1397 8.87181,-10.02066 5.59573,-16.28603 -1.79533,-3.4335 -2.91207,-7.72676 -3.60759,-13.86919 -0.55403,-4.89298 -1.85494,-13.17132 -2.8909,-18.39632 -3.73539,-18.83992 -4.54628,-32.04259 -4.5143,-73.5 0.0264,-34.241 0.26207,-40.61347 1.6368,-44.26094 0.9802,-2.60068 1.22991,-4.49335 0.64087,-4.85739 -1.11838,-0.6912 -16.33692,-1.91431 -36.11949,-2.90291 -7.59602,-0.3796 -13.65651,-0.84462 -13.46775,-1.03338 0.18876,-0.18877 10.45369,-0.6475 22.81096,-1.01942 12.35726,-0.37192 23.18601,-1.04868 24.06388,-1.50392 0.87787,-0.45524 2.36043,-2.98643 3.29457,-5.62487 1.44462,-4.08026 4.5814,-12.08045 6.22496,-15.87645 0.57228,-1.32175 -5.08454,-3.04123 -13.11566,-3.98673 -8.43372,-0.9929 -11.30115,-2.26746 -5.5,-2.44473 8.03852,-0.24564 13.67731,-1.40498 12,-2.46721 -2.04124,-1.29272 -55.80541,-1.97086 -59,-0.74419 -2.16169,0.83006 -1.62038,1.06242 4,1.71708 10.20877,1.1891 11.49825,2.13616 4,2.93779 -20.80469,2.22421 -25.26796,5.23532 -28.57429,19.27738 -1.52765,6.48799 -1.05262,6.96506 7.84293,7.87643 7.48168,0.76652 8.0393,1.89322 1.31226,2.65145 -2.45576,0.2768 -5.19824,1.23649 -6.09439,2.13264 -0.89615,0.89615 -2.25639,1.62937 -3.02275,1.62937 -2.15965,0 -3.17533,2.84772 -3.92334,11 -0.80439,8.76673 -6.62515,49.17191 -9.57998,66.5 -3.06038,17.94705 -7.42717,37.3229 -11.94476,53 -4.88206,16.94188 -5.54448,22.69823 -3.7472,32.56268 0.94588,5.19147 1.06964,8.25354 0.39471,9.76611 -0.55355,1.24056 -3.7996,3.58994 -7.42833,5.37635 -7.79365,3.8368 -7.35997,4.12043 8.86477,5.7977 32.11933,3.32039 91.35453,5.11998 100.29108,3.04688 z m 108.92461,-3.54395 c 18.47883,-1.43926 22.86827,-1.91415 29.03352,-3.14113 3.53629,-0.70378 2.39471,-2.11461 -3.62845,-4.48425 -4.87515,-1.918 -4.96224,-2.45771 -2.66873,-16.53861 1.18945,-7.30266 1.14078,-8.98061 -0.46418,-16 -0.98615,-4.31298 -2.61191,-9.64178 -3.6128,-11.84178 -2.06192,-4.53217 -5.98264,-18.11933 -5.97785,-20.71607 0.002,-0.94384 -0.63476,-3.19384 -1.41445,-5 -0.77969,-1.80616 -1.93535,-6.65893 -2.56814,-10.78393 -0.63279,-4.125 -1.85338,-10.65 -2.71241,-14.5 -0.85903,-3.85 -1.93194,-11.725 -2.38425,-17.5 -0.45231,-5.775 -1.98755,-16.8 -3.41166,-24.5 -3.28672,-17.77101 -4.3799,-24.59348 -5.07101,-31.64794 l -0.55332,-5.64794 -6.69079,-1.26995 c -7.25545,-1.37712 -43.45011,-1.75866 -48.92696,-0.51575 -3.15455,0.71589 -3.20074,0.80291 -1.83164,3.45047 2.27463,4.39865 3.46027,13.66632 3.72681,29.13111 0.13746,7.975 0.87538,18.325 1.63983,23 2.03373,12.43737 2.34038,47.75882 0.54694,63 -3.13879,26.6744 -3.04961,26.25541 -8.43634,39.63741 -1.10081,2.73468 -0.97045,3.95414 1.01552,9.5 1.25314,3.49942 2.50026,8.48769 2.77139,11.08503 0.53339,5.10978 -0.12753,4.6749 9.30365,6.12169 6.3389,0.97241 34.95407,0.51385 52.31532,-0.83836 z m -23.38829,-190.51726 c 6.83486,-0.53136 13.24736,-1.22647 14.25,-1.5447 2.67421,-0.84876 2.26212,-3.3107 -1.92703,-11.51277 -4.82937,-9.45557 -7.25024,-10.76001 -22.48731,-12.11692 -11.5968,-1.03274 -37.90689,-0.59619 -41.01269,0.68049 -2.49571,1.0259 -2.20917,1.97955 1.79915,5.98787 1.95203,1.95203 5.11687,6.89681 7.03297,10.9884 l 3.48382,7.43924 6.71703,0.34908 c 13.87473,0.72106 20.05689,0.669 32.14406,-0.27069 z M -411.75,-139.87286 c -2.6125,-0.206 -6.8875,-0.206 -9.5,0 -2.6125,0.206 -0.475,0.37454 4.75,0.37454 5.225,0 7.3625,-0.16854 4.75,-0.37454 z m -56.08546,-6.43975 c -0.32396,-1.23884 0.003,-2.63752 0.7595,-3.25 1.05306,-0.85247 1.16424,-3.56108 0.5367,-13.07521 -0.68632,-10.40517 -0.57547,-12.24069 0.83411,-13.81105 1.41093,-1.57187 1.43278,-1.93864 0.16539,-2.77713 -0.80313,-0.53135 -2.81024,-0.67724 -4.46024,-0.3242 -1.65,0.35304 -8.84365,0.92775 -15.98589,1.27713 l -12.98588,0.63525 -0.70649,4 c -0.38856,2.2 -0.73241,7.94715 -0.76411,12.77144 -0.0553,8.41098 0.0451,8.81825 2.44237,9.91051 2.94553,1.34208 3.15048,2.35349 0.75,3.70111 -1.47102,0.82582 -1.51087,1.06024 -0.25,1.47046 0.825,0.26841 2.175,0.71315 3,0.9883 0.825,0.27516 7.28998,0.53581 14.36663,0.57923 12.73612,0.0781 12.86086,0.0569 12.29791,-2.09584 z m 44.50054,-6.59029 c 1.66536,-1.66536 -0.28359,-6.87371 -3.22154,-8.6092 -4.8882,-2.88753 -6.07373,-4.51395 -4.89531,-6.71583 1.35571,-2.53318 0.43768,-3.90989 -2.60725,-3.90989 -1.94258,0 -2.44098,0.51483 -2.44098,2.52144 0,1.68809 -0.78982,2.8813 -2.38973,3.61027 -2.82298,1.28624 -4.91201,5.34222 -4.08827,7.93762 0.32111,1.01173 -0.21486,3.05847 -1.19105,4.54833 l -1.77489,2.70882 10.87455,-0.61582 c 5.981,-0.3387 11.26151,-1.00278 11.73447,-1.47574 z m -9.91508,-23.96713 c -2.3375,-0.21053 -6.1625,-0.21053 -8.5,0 -2.3375,0.21054 -0.425,0.3828 4.25,0.3828 4.675,0 6.5875,-0.17226 4.25,-0.3828 z m 130.02083,296.12804 c 0.33229,-0.33229 1.19479,-0.36781 1.91667,-0.0789 0.79773,0.31922 0.56078,0.55618 -0.60417,0.60416 -1.05416,0.0434 -1.64479,-0.19293 -1.3125,-0.52522 z"
       style="fill:#caaf77" />
    <path
       id="path6503"
       d="m 336.35419,720.12586 c -4.35983,-2.81217 -12.17121,-13.54183 -17.72638,-24.34885 -5.53277,-10.76342 -3.45814,-21.08431 6.5662,-32.66567 6.25872,-7.23084 7.0914,-7.8369 12.25571,-8.92012 3.04742,-0.6392 7.8418,-2.15207 10.65417,-3.36192 4.08474,-1.75721 5.11341,-2.67435 5.11341,-4.55902 0,-2.72166 6.78358,-9.99476 11.75,-12.59791 3.10255,-1.62621 4.38255,-3.79651 2.2391,-3.79651 -0.55599,0 -2.91849,-0.889 -5.25,-1.97555 -4.59924,-2.14339 -18.37873,-6.50041 -25.9891,-8.21766 -5.8542,-1.32097 -6.47363,-3.75236 -1,-3.92521 2.0625,-0.0651 4.09857,-0.0614 4.52461,0.008 2.00748,0.32816 10.54453,-2.45213 13.22539,-4.30716 1.65,-1.14172 3.19225,-2.19463 3.42723,-2.3398 0.23497,-0.14517 -0.55253,-1.17672 -1.75,-2.29234 -2.64897,-2.46769 -2.83019,-4.95028 -0.36137,-4.95028 1.05029,0 2.72027,-1.581 3.96105,-3.75 1.17985,-2.0625 3.73772,-5.46254 5.68414,-7.55565 1.94642,-2.09311 3.53895,-4.20899 3.53895,-4.70196 0,-0.49297 -2.01714,-2.28414 -4.48254,-3.98038 -4.80874,-3.3085 -6.64121,-7.51787 -8.05885,-18.51201 -0.35459,-2.75 -1.48008,-8.6 -2.50108,-13 -3.64603,-15.71262 -5.17868,-34.80018 -5.93752,-73.94598 -0.77818,-40.14328 -0.33029,-46.14422 3.66195,-49.06342 0.99819,-0.72989 1.54145,-1.60053 1.20723,-1.93474 -0.33421,-0.33421 -4.6085,-1.07752 -9.49842,-1.6518 -18.75389,-2.20247 -18.80654,-2.22414 -7.39077,-3.04241 9.72398,-0.697 10.65609,-0.94832 12.612,-3.4005 1.16161,-1.45632 2.83759,-5.25764 3.72442,-8.44737 0.88682,-3.18973 2.82281,-7.23799 4.30219,-8.99614 3.21427,-3.81995 2.65642,-4.41281 -5.83129,-6.19728 -5.87209,-1.23455 -6.88829,-2.82036 -1.80732,-2.82036 3.95985,0 4.61314,-1.61487 1.34584,-3.32678 -2.61971,-1.37261 -2.63992,-1.44511 -0.58465,-2.09742 1.75465,-0.55691 2.10841,-1.41397 2.01253,-4.87574 -0.064,-2.31003 -0.45703,-4.65736 -0.87345,-5.21629 -0.41643,-0.55893 -0.86846,-5.86374 -1.00452,-11.78847 -0.1985,-8.64396 0.0595,-11.07914 1.30598,-12.3256 1.38315,-1.38315 1.39095,-1.87891 0.0712,-4.52433 -0.97283,-1.95009 -1.21726,-3.89435 -0.71133,-5.65817 0.42393,-1.47796 1.03349,-15.78161 1.35457,-31.78588 0.45177,-22.51816 0.89416,-29.47211 1.95623,-30.75 1.63112,-1.96255 3.70206,-2.13558 4.80316,-0.40132 0.4365,0.6875 0.653,11.825 0.48111,24.75 -0.36303,27.29789 1.4775,42.87818 5.23565,44.32032 2.39354,0.91849 3.91648,11.67268 2.87481,20.30049 -0.5232,4.33355 -1.13485,8.55419 -1.35922,9.37919 -0.34518,1.26918 1.20776,1.48209 10.09205,1.3836 5.775,-0.064 12.4125,-0.64387 14.75,-1.28854 4.07227,-1.12313 4.25,-1.33509 4.25,-5.0685 0,-2.143 -0.51193,-5.16316 -1.13762,-6.71146 -0.62569,-1.54831 -1.22868,-5.2901 -1.33997,-8.3151 -0.16655,-4.52694 -0.54027,-5.56558 -2.11238,-5.87068 -1.05052,-0.20387 -3.01978,-0.79221 -4.37615,-1.30741 -3.39736,-1.29047 -0.94324,-2.78607 4.60534,-2.8066 7.04498,-0.0261 8.03782,1.64397 9.2089,15.49011 1.44294,17.06032 1.51339,17.18859 9.84453,17.92404 17.03585,1.50386 26.54671,3.66362 28.55425,6.4842 0.6892,0.96833 2.58361,2.39639 4.20979,3.17347 5.91751,2.82772 12.1563,15.47404 13.27688,26.91287 0.29634,3.025 0.91383,6.23234 1.37219,7.12741 0.45837,0.89508 1.7773,7.87008 2.93097,15.5 3.70589,24.5093 11.8902,69.56777 14.50787,79.87259 3.97371,15.64306 6.2581,22.07618 12.54614,35.33134 9.1935,19.37985 9.7416,20.02564 48.094,56.66866 7.383,7.05391 13.865,16.68732 16.0135,23.7992 1.0085,3.33815 0.9145,4.0274 -0.7752,5.67976 -1.0577,1.03431 -3.5439,2.17476 -5.525,2.53432 -3.3113,0.60101 -3.7615,0.38481 -5.5799,-2.67976 -3.4329,-5.78533 -12.218,-14.60665 -16.7147,-16.78345 -6.9695,-3.37389 -21.9549,-6.70211 -38.60344,-8.57379 -12.65619,-1.42284 -19.90332,-1.61819 -39.5,-1.06472 -43.04248,1.21565 -58.34527,3.91062 -63.83665,11.24227 -2.49476,3.33079 -1.68852,4.7505 4.76663,8.39356 3.39223,1.91446 6.91361,5.01499 9.13941,8.04714 3.66247,4.98929 9.58791,9.19178 14.75383,10.46384 5.42929,1.33692 0.99554,2.4429 -13.78748,3.43922 -8.17782,0.55116 -15.10497,1.23831 -15.39366,1.527 -0.28869,0.28869 1.77449,2.87626 4.58484,5.75015 11.02301,11.27222 12.56793,20.79483 5.796,35.72526 -5.70532,12.5788 -9.21959,17.80461 -13.41144,19.94313 -5.18765,2.64656 -13.91154,4.05687 -25.09493,4.05687 -8.79014,0 -9.98241,-0.23623 -13.87962,-2.75 z m 45.40233,-32.28255 c 0.80343,-0.66679 1.46078,-2.05724 1.46078,-3.08989 0,-1.54738 -0.7607,-1.87756 -4.32569,-1.87756 -3.34489,0 -4.86942,0.57878 -6.72379,2.55267 -2.03333,2.16438 -2.17393,2.70301 -0.92432,3.54104 1.82902,1.22659 8.54492,0.50712 10.51302,-1.12626 z m -32.82617,-2.60674 c 0.42304,-1.26895 -10.68631,-3.89443 -19.9055,-4.70428 -4.22159,-0.37084 -6.00253,-0.12642 -6.8925,0.94593 -0.66003,0.79528 -0.87975,1.7726 -0.48827,2.17181 2.35549,2.402 26.54554,3.80852 27.28627,1.58654 z M 451.7173,610.9091 c 24.37486,-1.94488 41.5047,-4.39787 41.4971,-5.94237 0,-0.32498 -2.1072,-1.71587 -4.67914,-3.09087 -7.07062,-3.78007 -8.15949,-5.90943 -9.20445,-18 -0.73657,-8.52242 -1.94365,-13.61603 -6.40899,-27.04462 -6.69503,-20.13395 -9.71329,-32.23347 -13.58404,-54.45538 -2.94999,-16.93581 -8.03151,-48.84218 -10.18348,-63.94109 -0.62249,-4.3676 -1.48982,-8.88274 -1.92739,-10.03365 -0.89341,-2.34984 -7.98338,-4.8933 -17.00961,-6.10204 -5.02673,-0.67315 -5.24186,-0.80112 -2.5,-1.48719 1.65,-0.41286 5.53718,-1.04346 8.63817,-1.40133 3.10099,-0.35787 6.42427,-1.22548 7.38506,-1.92802 1.66158,-1.21498 1.66184,-1.54179 0.005,-6.69202 -2.48075,-7.71334 -5.91296,-12.5599 -10.58115,-14.94143 -4.34256,-2.21541 -17.12908,-3.77167 -33.44752,-4.07093 -8.44518,-0.15487 -8.69176,-0.21736 -4,-1.0136 2.75,-0.4667 9.8375,-1.12588 15.75,-1.46485 6.53423,-0.37462 10.75,-1.03295 10.75,-1.67872 0,-1.3569 -46.8949,-0.25023 -48.28461,1.13948 -0.60889,0.60889 0.6322,1.16242 3.41397,1.52267 8.61133,1.11517 9.34281,1.32126 5.16986,1.45654 -5.52432,0.17909 -14.12918,2.05204 -14.85995,3.23445 -0.3183,0.51502 1.14015,2.89565 3.241,5.29029 2.38812,2.72209 4.71194,6.99737 6.20027,11.40703 2.77097,8.20989 1.88874,7.78907 18.39841,8.77583 6.47842,0.38721 11.50487,0.97954 11.16988,1.3163 -0.33498,0.33675 -6.57896,1.10555 -13.8755,1.70843 -7.29654,0.60288 -13.78049,1.41385 -14.40877,1.80215 -0.83733,0.5175 -0.77633,1.29281 0.22848,2.90385 1.98593,3.18409 2.67748,9.17173 3.14123,27.19785 0.2264,8.8 0.94147,26.26512 1.58904,38.81138 1.18858,23.02795 0.72345,51.14305 -1.02883,62.18862 -0.52352,3.3 -1.4079,9.09328 -1.9653,12.87395 -0.59773,4.05423 -1.77746,7.74607 -2.87596,9 -2.91757,3.33091 -7.25278,10.44622 -7.25278,11.90461 0,0.72679 0.5417,1.86314 1.20377,2.52521 1.40597,1.40597 3.6883,9.51911 3.7521,13.33782 0.0515,3.08125 1.0347,3.44941 14.54413,5.44596 9.99966,1.47784 39.8795,1.2107 62,-0.55431 z M 415.15324,422.83627 c -1.13167,-0.69941 -1.08322,-0.96666 0.26936,-1.4857 0.90709,-0.34808 2.6801,-0.48479 3.94002,-0.30379 2.28682,0.32851 2.28636,0.33108 -0.26936,1.48569 -1.49699,0.67631 -3.13316,0.80246 -3.94002,0.3038 z M 165.29325,644.82176 c -10.44129,-2.73402 -12.4552,-4.22141 -11.73393,-8.66612 1.07636,-6.63283 8.56881,-17.95054 16.95513,-25.61153 18.02285,-16.46408 31.17393,-29.56452 35.80612,-35.66825 6.4142,-8.45185 15.90127,-27.70598 20.27086,-41.14 4.79736,-14.74913 12.43609,-52.96968 18.15922,-90.86 1.4538,-9.625 3.16148,-18.12617 3.79484,-18.89149 0.63336,-0.76532 1.17581,-3.69032 1.20546,-6.5 0.11908,-11.28685 7.5971,-26.42057 13.82792,-27.98441 1.3197,-0.33122 2.61268,-1.41765 2.87331,-2.41428 0.65179,-2.49246 12.18198,-5.17566 25.47577,-5.92848 8.81951,-0.49944 10.53625,-0.87416 11.40011,-2.4883 0.55936,-1.04517 1.28339,-7.53792 1.60896,-14.42834 0.79548,-16.83555 0.38702,-16.40518 15.84656,-16.69677 6.63477,-0.12514 13.15908,0.0785 14.49847,0.45259 1.33939,0.37407 -2.31624,0.72498 -8.12362,0.7798 -6.76737,0.0639 -11.14452,0.54853 -12.18983,1.34968 -1.2639,0.96868 -1.78788,3.89881 -2.32827,13.01971 -0.62051,10.47309 -0.50177,11.98581 1.07783,13.73124 1.41096,1.55909 1.52843,2.25883 0.57259,3.41055 -1.66762,2.00936 1.46837,3.5729 8.76236,4.36872 l 5.66419,0.618 -4,0.74326 c -2.2,0.40879 -12.6625,0.76919 -23.25,0.80089 -11.5173,0.0345 -19.25,0.44113 -19.25,1.01232 0,0.52507 1.6875,1.23514 3.75,1.57791 6.43384,1.06926 6.98207,1.73678 2.25,2.73958 -9.77558,2.07158 -12.02479,2.8778 -14.99045,5.37324 -3.77523,3.17665 -5.9796,7.25174 -7.56556,13.98608 -1.38749,5.89154 -1.00423,6.9388 2.89774,7.91813 l 2.8217,0.7082 -3.03523,2.77226 c -1.66938,1.52474 -3.52343,2.93499 -4.12012,3.13388 -0.60464,0.20155 -2.14787,8.54534 -3.48619,18.84883 -7.73372,59.54026 -13.64348,89.79169 -22.69351,116.16578 -4.03615,11.76237 -4.2192,12.80695 -4.03429,23.0224 0.10653,5.88553 -0.23608,11.83135 -0.76136,13.21293 -1.3992,3.68019 -8.14096,7.57207 -13.26286,7.65638 -2.34843,0.0387 -5.15347,0.41575 -6.23342,0.83799 -1.79691,0.70256 -1.74305,0.82305 0.63464,1.41981 3.6601,0.91863 31.63281,4.38988 41.94294,5.20489 11.5899,0.91616 13.65901,2.42643 3.38597,2.47147 -18.42125,0.0807 -55.54332,5.51487 -64.93646,9.50572 -8.52111,3.62036 -16.56354,12.64122 -16.56354,18.57862 0,4.41154 -2.04593,4.70553 -12.92405,1.85711 z m 104.16239,-30.63298 c 0.95609,-0.25029 2.75609,-0.25937 4,-0.0202 1.24391,0.23919 0.46166,0.44398 -1.73834,0.45508 -2.2,0.0111 -3.21775,-0.18461 -2.26166,-0.4349 z M 339.0173,385.67586 c 0.93333,-0.93333 1.46667,-0.93333 2.4,0 0.93333,0.93333 0.66667,1.2 -1.2,1.2 -1.86667,0 -2.13333,-0.26667 -1.2,-1.2 z"
       style="fill:#544832;fill-opacity:1" />
    <path
       id="path6501"
       d="m -414.35484,1147.7822 c -1.29516,-0.5132 -3.71377,-1.9008 -5.37469,-3.0835 -3.36731,-2.3977 -12.44447,-15.7896 -16.26492,-23.9963 -4.73328,-10.1676 -2.67474,-20.1166 6.42,-31.0283 5.91874,-7.1012 5.76003,-7.0196 20.07445,-10.3102 9.78877,-2.2502 12.09723,-3.7094 15.96536,-10.0918 2.97979,-4.9166 3.61444,-5.3962 8.62396,-6.5173 8.01069,-1.7927 12.1392,-0.2584 17.14503,6.3718 2.75102,3.6437 5.54461,5.9927 9.1161,7.6655 2.83225,1.3266 5.14955,2.7224 5.14955,3.1017 0,0.905 -8.8898,1.9487 -16.69098,1.9597 -3.40504,0.01 -6.46272,0.4483 -6.79483,0.9857 -0.33211,0.5374 2.06475,3.8456 5.32636,7.3516 8.0247,8.6259 8.56961,9.8402 8.60323,19.1714 0.0251,6.9577 -0.40857,8.9771 -3.32853,15.5 -1.84655,4.125 -4.99038,9.9746 -6.9863,12.9992 -5.03366,7.6279 -10.32353,9.6848 -26.64047,10.3588 -6.59366,0.2724 -13.04816,0.075 -14.34332,-0.438 z m 42.21998,-26.9926 c 1.75593,-1.3812 2.63486,-3.0325 2.63486,-4.9503 0,-1.5828 0.70334,-3.2713 1.56298,-3.7524 1.1153,-0.6242 1.36999,-1.6436 0.88922,-3.5592 -0.37057,-1.4764 -0.9923,-2.8813 -1.38162,-3.1219 -0.38933,-0.2406 -3.95677,0.3982 -7.92765,1.4196 -7.12209,1.832 -12.14293,4.2818 -12.14293,5.925 0,1.5564 4.29506,6.3206 7.4113,8.2208 3.95526,2.4119 5.70175,2.3765 8.95384,-0.1816 z M -404,1110.9073 c 0,-1.9065 -10.34605,-4.0387 -21,-4.3279 -7.48352,-0.2032 -8.01963,-0.08 -8.30408,1.9147 -0.25849,1.8124 0.41613,2.2843 4.5,3.1482 2.64224,0.5589 9.30408,0.9495 14.80408,0.868 8.01667,-0.1187 10,-0.4367 10,-1.603 z m -183.5,-40.1306 c -6.5075,-1.2528 -12.73827,-3.7901 -13.37368,-5.4459 -1.18904,-3.0986 5.05522,-15.5823 12.08575,-24.1621 1.95446,-2.3852 6.30629,-6.3693 9.67074,-8.8536 8.44561,-6.2363 23.51891,-21.3692 30.75629,-30.878 9.8869,-12.9898 19.11003,-33.80431 24.81978,-56.01262 2.53904,-9.87566 11.1741,-57.11856 13.99407,-76.5623 1.15664,-7.975 2.73386,-16.075 3.50495,-18 0.77109,-1.925 1.61365,-6.2 1.87237,-9.5 0.90484,-11.5414 6.80214,-23.20613 12.70436,-25.12895 1.90595,-0.62092 3.60931,-1.85032 3.78523,-2.732 0.49137,-2.46265 9.20239,-4.57673 23.6749,-5.74566 7.14712,-0.57727 13.08245,-1.13727 13.18964,-1.24445 0.447,-0.44701 2.3156,-21.25009 2.3156,-25.77965 0,-4.35987 0.29147,-5.02961 2.5651,-5.89404 1.4108,-0.53639 3.50555,-0.97525 4.65499,-0.97525 1.92062,0 1.96298,0.14174 0.52298,1.75 -1.99234,2.22513 -2.87207,25.521 -1.03321,27.35986 0.8624,0.8624 0.85458,1.64337 -0.0315,3.14912 -0.84929,1.44319 -0.86887,2.11554 -0.0701,2.40774 0.6095,0.22297 1.9595,1.04987 3,1.83754 1.66699,1.26194 -0.0691,1.43754 -14.60819,1.47759 -16.63382,0.0458 -21,0.49488 -21,2.15978 0,0.4996 1.35936,1.18024 3.02081,1.51253 4.80632,0.96127 4.39782,2.09033 -1.18986,3.28867 -10.09113,2.16416 -14.64811,7.10071 -17.4281,18.87974 -1.1557,4.8968 -1.10207,5.45454 0.67048,6.97225 2.50799,2.14741 2.4341,2.83041 -0.61161,5.65308 -2.29592,2.12778 -2.72144,3.81805 -4.45658,17.70225 -4.66561,37.33312 -11.88355,78.80151 -17.11868,98.34985 -2.53366,9.46088 -7.4476,23.88569 -11.07142,32.5 -0.57843,1.37502 -1.25683,6.55002 -1.50757,11.50002 -0.25073,4.95 -0.91995,10.2203 -1.48716,11.7117 -1.72418,4.5338 -6.94231,7.7272 -13.79732,8.4437 -11.56764,1.209 -8.71693,2.3543 14.47701,5.8164 11.52278,1.7199 14.06867,2.2928 13.35599,3.0055 -0.23665,0.2367 -7.51822,1.3615 -16.18127,2.4997 -18.49961,2.4306 -26.50505,4.1729 -36.01328,7.8382 -6.25633,2.4116 -7.46008,3.3461 -11.83203,9.1848 -4.04305,5.3994 -4.78992,7.0502 -4.41114,9.75 0.50853,3.6245 0.37201,3.6643 -7.41827,2.1645 z m 368,-10.607 c -5.22271,-6.9477 -7.69135,-9.2988 -12.56265,-11.9642 -8.97962,-4.9134 -24.84694,-8.3267 -41.93735,-9.0213 -7.7,-0.3129 -14.675,-0.9497 -15.5,-1.4151 -1.04016,-0.5867 -0.41122,-0.8554 2.05161,-0.8765 3.84757,-0.033 29.34275,-4.4307 32.19265,-5.5531 2.3496,-0.9253 1.44237,-2.09 -2.19457,-2.8174 -1.64556,-0.3291 -4.76055,-1.7149 -6.92219,-3.0794 -3.41799,-2.1577 -4.18736,-3.3674 -5.90275,-9.2808 -1.08488,-3.7399 -2.4738,-9.5004 -3.0865,-12.8012 -0.61269,-3.3008 -3.35738,-12.16325 -6.09929,-19.69432 -6.26033,-17.1949 -11.04637,-36.20124 -14.93356,-59.3042 -1.66572,-9.9 -3.48942,-20.3899 -4.05266,-23.31089 -0.56324,-2.921 -2.37127,-14.4476 -4.01786,-25.61468 -1.64659,-11.16708 -3.23336,-20.92718 -3.52616,-21.68911 -0.2928,-0.76193 -2.18417,-2.28532 -4.20304,-3.38532 -4.81084,-2.62122 -5.04192,-3.81548 -1.07595,-5.56082 3.80338,-1.67379 3.88175,-2.89345 0.72761,-11.32366 -4.05038,-10.82562 -9.18925,-14.23332 -23.07932,-15.30445 -4.33291,-0.33413 -7.87802,-0.93838 -7.87802,-1.34279 0,-0.40441 2.92027,-1.04802 6.48948,-1.43025 3.56921,-0.38223 6.71037,-1.05238 6.98036,-1.48922 0.26998,-0.43684 -2.53779,-1.05468 -6.23948,-1.37296 -8.62319,-0.74146 -49.84535,0.60581 -50.90321,1.66367 -0.4409,0.4409 -0.80738,1.53636 -0.8144,2.43434 -0.0212,2.71983 -8.03148,4.56419 -13.41349,3.08847 -3.82132,-1.04779 -4.11756,-1.31141 -2.25,-2.00227 2.6974,-0.99783 2.76614,-2.52997 0.15074,-3.36006 -2.38624,-0.75736 -2.59279,-2.05855 -0.45688,-2.87817 1.19451,-0.45838 1.30747,-1.03249 0.5,-2.54125 -0.57371,-1.072 -1.04312,-2.82358 -1.04312,-3.89239 0,-1.06882 -0.59284,-2.43532 -1.31743,-3.03667 -0.88252,-0.73242 -1.35601,-3.91074 -1.4343,-9.62777 -0.0643,-4.69392 -0.3904,-9.39621 -0.72471,-10.44953 -0.41261,-1.30002 0.22143,-2.68408 1.97409,-4.30923 l 2.58193,-2.3941 -2.14363,-2.72518 c -1.76392,-2.24247 -2.00078,-3.38238 -1.33719,-6.43545 0.44354,-2.04064 0.82777,-16.1283 0.85384,-31.30591 0.0496,-28.847 0.42923,-31.4616 4.45544,-30.68179 1.409,0.2729 1.59196,3.40962 1.59196,27.29289 0,23.21353 0.26168,27.96278 1.87255,33.98455 1.0299,3.85 2.30614,7.54279 2.83609,8.2062 0.52995,0.6634 0.69246,1.64481 0.36114,2.1809 -0.33132,0.53609 -0.14506,1.25736 0.41391,1.60282 0.59565,0.36813 1.01631,5.51986 1.01631,12.44665 0,9.31098 -0.31981,12.08396 -1.50733,13.06952 -1.31659,1.09267 -1.18353,1.55107 1.05152,3.62244 2.32943,2.15885 3.4284,2.37025 12.25733,2.35782 5.33416,-0.008 10.70592,-0.28368 11.93723,-0.61369 2.69975,-0.7236 2.00885,-2.34098 -1.04777,-2.45283 -1.28089,-0.0469 -0.11408,-0.77379 2.80902,-1.75 l 5,-1.66983 -0.0683,-5.5 c -0.13965,-11.24725 -0.92127,-19.52173 -1.9114,-20.23469 -0.56117,-0.40408 -2.23125,-0.74158 -3.71129,-0.75 -1.48004,-0.008 -2.9691,-0.46531 -3.30902,-1.01531 -1.00546,-1.62686 9.14276,-1.21438 10.79595,0.43881 0.98276,0.98276 1.66119,5.02406 2.1404,12.75 0.38587,6.22115 1.16438,12.90724 1.73002,14.85798 l 1.02844,3.54678 12.65259,1.13649 c 14.0424,1.26131 23.1526,3.54166 23.1526,5.79526 0,0.79631 1.4625,2.07088 3.25,2.83238 1.7875,0.7615 4.25827,2.47953 5.49059,3.81786 3.47083,3.76937 7.45031,14.60815 8.0129,21.82444 0.2787,3.575 0.94989,7.05841 1.49152,7.74091 0.54163,0.68249 2.02346,8.10749 3.29294,16.5 6.42548,42.47844 13.60946,78.28803 19.11053,95.25909 3.40961,10.51881 13.30472,31.28384 18.01972,37.81462 5.19998,7.2025 25.6875,28.2483 32.3318,33.2128 7.81258,5.8373 13.95863,13.0456 18.27087,21.4286 4.48275,8.7145 4.78315,12.2427 1.18208,13.8835 -1.40088,0.6382 -3.08838,1.1502 -3.75,1.1377 -0.66162,-0.013 -4.12795,-3.9138 -7.70295,-8.6697 z m -172.02006,-14.8317 c -0.69572,-0.8383 -0.99522,-1.7939 -0.66557,-2.1235 1.02406,-1.0241 3.68563,0.5042 3.68563,2.1163 0,1.9586 -1.39777,1.962 -3.02006,0.01 z M -385,1040.3651 c -0.55,-0.1865 -2.70001,-0.6237 -4.77779,-0.9716 -5.9196,-0.9909 -3.32016,-2.5313 4.27171,-2.5313 5.99899,0 13.02562,1.4133 11.89477,2.3925 -0.62387,0.5402 -10.29075,1.4827 -11.38869,1.1104 z m -5.28188,-37.4723 c -2.37104,-1.9772 -5.49091,-9.76682 -6.64304,-16.58624 -0.36652,-2.16941 -0.60448,-4.16938 -0.52881,-4.44438 0.0757,-0.275 -0.53821,-2.3 -1.36419,-4.5 -1.46965,-3.91442 -3.40088,-14.48528 -5.75485,-31.5 -0.64678,-4.675 -1.32274,-18.4 -1.50214,-30.5 -0.17939,-12.1 -0.56111,-28.75 -0.84827,-37 -0.45265,-13.00472 -0.2792,-15.59858 1.30393,-19.5 1.00432,-2.475 2.79201,-4.94421 3.97264,-5.48713 4.16549,-1.91552 2.40782,-2.79377 -8.11661,-4.05562 -6.97917,-0.83679 -8.12392,-2.00786 -2.67691,-2.73845 2.21021,-0.29646 4.7374,-1.13559 5.61598,-1.86474 1.94279,-1.61237 5.32415,-9.25703 5.32415,-12.03697 0,-3.00478 6.26249,-8.81709 9.5,-8.81709 4.37852,0 8.82841,5.37175 11.34827,13.69924 1.19816,3.95959 2.63402,7.4808 3.19081,7.82491 0.55678,0.34411 3.48896,0.88127 6.51595,1.19368 6.02815,0.62216 8.47891,2.28217 3.36928,2.28217 -4.35491,0 -15.92431,2.18854 -15.92431,3.01234 0,0.36665 1.06202,1.15052 2.36004,1.74193 2.0995,0.9566 2.48185,2.10584 3.46353,10.41052 2.48763,21.04439 3.29559,97.26954 1.21775,114.88617 -1.78115,15.10116 -3.43934,20.25251 -7.52144,23.36606 -3.98881,3.0424 -3.45181,2.9902 -6.30176,0.6136 z"
       style="fill:#8b7450" />
    <path
       id="path6499"
       d="m 1028.8668,260.34569 c -5.5109,-3.24721 -12.7517,-12.74518 -19.1992,-25.18449 -4.9172,-9.48677 -2.87,-22.08231 4.9626,-30.53285 1.7801,-1.9206 4.4395,-4.77482 5.9097,-6.34271 1.8496,-1.97254 3.6496,-2.85071 5.8429,-2.85071 6.0368,0 23.5008,-4.13347 27.6202,-6.53729 6.1044,-3.56211 13.9659,-3.22722 21.7628,0.92706 2.6944,1.43563 5.5334,2.61023 6.309,2.61023 0.7755,0 1.1319,0.45 0.792,1 -0.3399,0.55 -2.5602,1 -4.934,1 -6.2098,0 -10.566,1.05005 -10.566,2.54689 0,0.71329 2.2746,3.69454 5.0546,6.625 7.7309,8.14927 9.2144,11.65279 8.7787,20.73211 -0.3637,7.57876 -0.7572,8.76212 -7.5765,22.78694 -5.2369,10.7703 -10.5921,13.28017 -29.7568,13.94637 -8.9322,0.31051 -13.6258,0.0832 -15,-0.72655 z m 35.0714,-7.22656 c 0.5893,-0.65131 1.9069,-3.2092 2.9282,-5.6842 1.0212,-2.475 3.5879,-6.3286 5.7038,-8.56356 6.554,-6.92277 9.3561,-18.06741 5.3737,-21.37247 -1.4761,-1.2251 -20.0456,3.97602 -22.3217,6.25206 -1.4121,1.4121 -1.3091,2.26326 1.0928,9.02889 3.1128,8.76817 3.1664,9.50808 1.0169,14.01563 -1.0345,2.16941 -1.3857,4.42102 -0.9564,6.13141 0.5886,2.34524 1.0366,2.61522 3.3848,2.03972 1.4886,-0.36481 3.1886,-1.19618 3.7779,-1.84748 z m -22.5297,-27.23439 c 2.6909,-3.24235 -3.8626,-5.33148 -22.1883,-7.07312 -6.1401,-0.58356 -6.7356,-0.46536 -7.8148,1.55125 -0.6426,1.20062 -0.9952,2.70211 -0.7837,3.33665 1.0655,3.19642 28.3408,5.1324 30.7868,2.18522 z M 849.86682,181.64116 c -3.57049,-1.21842 -5.0838,-2.29179 -5.29309,-3.75434 -0.16121,-1.12645 1.56064,-5.75175 3.82631,-10.27843 4.7458,-9.48182 14.89836,-20.58331 21.69606,-23.72412 2.3205,-1.07214 4.2307,-2.35845 4.2449,-2.85848 0.014,-0.50003 4.432,-5.45003 9.8172,-11 11.2708,-11.61545 17.3147,-19.78403 23.0042,-31.09086 6.0398,-12.00327 8.941,-19.42475 12.7038,-32.49798 3.8679,-13.43809 11.7877,-55.07795 16.5401,-86.96244 1.1034,-7.40323 2.7165,-14.54437 3.5845,-15.8692 1.0097,-1.54092 1.3645,-3.47813 0.9847,-5.37679 -0.7441,-3.72078 0.8793,-10.4978 4.4067,-18.39613 2.753,-6.16425 5.9293,-9.39746 9.2319,-9.39746 0.9912,0 2.2076,-1.06613 2.703,-2.36918 0.5432,-1.42875 2.0219,-2.61611 3.7252,-2.99123 9.7091,-2.13826 13.0422,-2.55324 21.8226,-2.71691 5.3783,-0.10025 10.5039,-0.37332 11.3903,-0.60683 1.3668,-0.36007 1.6564,-2.55067 1.9062,-14.42246 0.3185,-15.13103 1.1177,-18.89339 4.0132,-18.89339 1.7476,0 1.8314,0.90032 1.4196,15.25 -0.2406,8.3875 -0.8341,15.67136 -1.3188,16.18635 -0.5165,0.54874 -0.2503,1.63353 0.6429,2.62058 1.4212,1.57036 0.3722,1.73349 -15.5136,2.41249 -13.3798,0.57188 -17.0379,1.02152 -17.0379,2.09423 0,0.75129 0.9966,1.89934 2.2147,2.55123 2.1153,1.13206 2.0313,1.23938 -1.8719,2.39185 -2.2476,0.66363 -5.2865,2.0586 -6.7531,3.09994 -3.43,2.43533 -7.3847,10.03953 -8.6264,16.58707 -0.8183,4.3149 -0.707,5.43195 0.6957,6.98197 1.5666,1.73103 1.5397,1.9839 -0.4343,4.08517 -2.4481,2.60583 -3.7736,8.06005 -4.6758,19.23912 -0.355,4.4 -1.2688,11.6 -2.0306,16 -0.7619,4.4 -2.5696,15.65 -4.0173,25 -4.6954,30.32696 -12.116,63.65456 -15.5271,69.73643 -0.5356,0.95504 -0.9739,2.23225 -0.9739,2.83826 0,0.606 -1.2817,3.87461 -2.8483,7.26357 -1.5665,3.38895 -3.4218,7.96174 -4.1227,10.16174 -0.701,2.2 -1.687,4.80984 -2.1912,5.79965 -0.5042,0.9898 -1.3148,3.6898 -1.8013,6 -2.6243,12.46172 -7.3466,17.55542 -17.0949,18.43937 -3.2991,0.29915 -6.2265,0.91305 -6.5054,1.36422 -0.8407,1.36027 17.4034,5.68123 24.8138,5.87695 0.4125,0.0109 0.75,0.42333 0.75,0.91652 0,0.49319 -3.9375,1.43558 -8.75,2.09419 -9.565,1.30901 -26.3035,5.31668 -32.09,7.68323 -3.8856,1.58916 -14.16,10.96325 -14.16,12.91927 0,0.63894 -0.675,1.72191 -1.5,2.4066 -0.825,0.68469 -1.49998,2.53979 -1.49998,4.12244 0,3.46075 -1.89945,3.67745 -9.5,1.08379 z m 378.44938,-8.19044 c -5.1354,-8.00557 -9.4214,-12.18262 -15.9494,-15.54394 -5.5976,-2.88226 -21.939,-7.47185 -26.6038,-7.47185 -6.2759,0 -6.15,-1.51305 0.245,-2.94418 7.2303,-1.61807 12.8571,-3.9906 11.7404,-4.95034 -0.4849,-0.41675 -2.8295,-1.36969 -5.2104,-2.11766 -6.1607,-1.93546 -11.349,-8.21349 -14.6952,-17.78141 -1.4823,-4.23853 -4.2208,-11.38445 -6.0855,-15.87984 -1.8648,-4.49539 -3.3905,-8.62142 -3.3905,-9.16896 0,-0.54754 -0.6565,-2.2695 -1.4589,-3.82657 -1.9472,-3.77843 -8.1972,-24.08339 -10.1055,-32.83104 -0.84,-3.85 -2.6441,-13.525 -4.0092,-21.5 -1.3651,-7.975 -3.587,-20.35 -4.9375,-27.5 -1.3505,-7.15 -3.3572,-19.5931 -4.4594,-27.65133 -2.0647,-15.09558 -3.2548,-19.84867 -4.9695,-19.84867 -0.5443,0 -1.5006,-0.95483 -2.1252,-2.12183 -0.9334,-1.74411 -0.7834,-2.47403 0.8428,-4.10021 1.9238,-1.92374 1.931,-2.1344 0.262,-7.62817 -4.1143,-13.54331 -7.4495,-16.59743 -21.5396,-19.7247 l -3,-0.66584 3.235,-1.12963 c 7.4093,-2.58722 3.558,-3.13182 -24.235,-3.42698 -23.558,-0.25019 -28.9905,-0.0345 -34.2438,1.35936 -6.4199,1.70347 -10.5694,1.35126 -8.497,-0.72121 0.6015,-0.6015 7.0728,-1.48355 14.3807,-1.96011 13.1937,-0.86038 19.8601,-2.18903 19.8601,-3.95823 0,-0.50735 -0.5284,-0.92245 -1.1743,-0.92245 -0.6459,0 -0.1309,-1.11068 1.1444,-2.46819 2.2845,-2.4317 2.3056,-2.66031 1.4244,-15.4663 -0.6682,-9.71039 -0.6073,-12.69047 0.241,-11.78181 0.9216,0.98712 2.5202,13.47823 3.6751,28.7163 0.1867,2.46381 0.3547,2.51032 11.6025,3.21296 15.7789,0.98568 21.6443,2.34663 25.3416,5.88003 1.6731,1.59885 3.566,2.90701 4.2065,2.90701 1.7513,0 6.0466,4.95697 8.4499,9.75145 2.6602,5.30705 5.433,15.90954 4.6764,17.88128 -0.3122,0.81349 0.1078,3.09558 0.9333,5.07133 0.8256,1.97575 2.4216,9.7131 3.5467,17.19411 1.1252,7.481 3.1744,19.90183 4.5538,27.60183 1.3795,7.7 3.4008,19.175 4.4918,25.5 4.4969,26.07098 10.3423,45.83326 18.5639,62.76227 6.612,13.61453 14.1121,23.91119 25.6597,35.22756 4.7648,4.6694 8.6633,9.19223 8.6633,10.05073 0,0.8585 1.9339,2.50048 4.2976,3.64884 9.6405,4.68369 21.0399,18.40252 24.7012,29.72712 1.1332,3.50496 1.0746,4.05665 -0.5574,5.25 -1.003,0.73342 -2.3967,1.33348 -3.097,1.33348 -0.7004,0 -3.5781,-3.5929 -6.395,-7.98421 z M 1052.5317,92.44408 c -1.2162,-1.64496 -2.4891,-4.45746 -2.8288,-6.25 -0.3396,-1.79253 -1.0046,-3.75576 -1.4777,-4.36272 -0.4731,-0.60696 -0.8574,-2.18196 -0.854,-3.5 0.014,-5.57528 -1.9989,-20.01774 -3.0694,-22.0179 -0.6569,-1.22752 -1.3359,-8.29083 -1.5642,-16.27371 -0.2219,-7.75765 -0.6832,-22.20482 -1.0251,-32.10482 -0.9213,-26.67409 -0.7722,-32.56302 0.9276,-36.6207 1.3506,-3.22439 2.0261,-3.6971 6.1709,-4.31865 4.8365,-0.72528 10.2021,-0.0162 12.2329,1.61671 1.5692,1.26176 2.1664,8.62651 3.0671,37.82264 1.3143,42.60352 0.1017,79.92821 -2.8021,86.25 -1.7709,3.85549 -5.831,3.74408 -8.7772,-0.24085 z m -8.1649,-129.11334 c -9.3424,-1.35015 -10.1279,-1.81679 -5.9263,-3.52024 2.6476,-1.07339 4.0434,-2.54075 5.3861,-5.66221 5.2514,-12.20894 5.562,-12.71355 7.8152,-12.69805 1.2238,0.008 2.7089,0.34592 3.3003,0.75 1.4679,1.00291 3.9436,5.75645 6.034,11.58559 1.0936,3.04971 2.603,5.24434 4.0651,5.91051 1.2791,0.58279 2.3256,1.40163 2.3256,1.81965 0,1.90134 -14.4899,3.04463 -23,1.81475 z m -0.1054,-47.25834 c -2.2314,-1.10997 -2.4447,-1.93874 -3.1309,-12.1643 -0.7118,-10.6062 -0.6616,-11.03095 1.5,-12.70093 2.7145,-2.09719 6.0827,-2.26475 7.6466,-0.38041 0.7673,0.92463 1.0602,5.33441 0.8724,13.13723 -0.2623,10.8969 -0.4348,11.80153 -2.3881,12.52246 -1.2283,0.45336 -3.103,0.28087 -4.5,-0.41405 z m -1.7125,-31.22248 c -1.6941,-1.18658 -2.0824,-2.12922 -1.5449,-3.75 0.3949,-1.19074 0.6481,-13.86499 0.5626,-28.16499 -0.1679,-28.10334 0.3351,-33.78675 3.0364,-34.30697 1.5773,-0.30376 1.6911,1.69098 1.511,26.48924 -0.1653,22.75445 0.066,27.74869 1.529,32.96207 0.9481,3.37939 1.7238,6.64189 1.7238,7.25 0,1.63717 -4.2197,1.34049 -6.8179,-0.47935 z"
       style="fill:#5e4c35" />
    <path
       id="path6497"
       d="m 1012.185,1109.8055 c -4.7145,-1.3484 -9.3983,-5.6499 -14.14953,-12.9946 -8.27364,-12.7897 -9.95279,-16.7992 -9.85756,-23.5377 0.11403,-8.0682 2.6616,-13.4618 9.9376,-21.0396 l 5.88449,-6.1285 8,-0.632 c 4.4,-0.3475 12.4947,-1.0445 17.9881,-1.5488 11.5364,-1.059 15.2119,-0.5827 16.0573,2.081 0.3326,1.0477 2.9782,4.4816 5.8791,7.6309 2.901,3.1493 5.7816,6.689 6.4013,7.866 1.0047,1.908 0.8313,2.1939 -1.5995,2.6376 -4.202,0.7671 -13.1875,3.3695 -18.7263,5.4236 l -5,1.8543 -0.6048,11.9723 c -0.6157,12.1875 -2.0114,18.5043 -4.8223,21.8246 -3.2653,3.857 -10.4547,6.0019 -15.3879,4.5909 z m 10.7436,-33.5147 c 3.8363,-3.8364 1.6655,-5.6134 -9.4286,-7.7184 -11.8229,-2.2433 -18.93859,-2.8134 -21.04463,-1.6863 -2.05847,1.1016 -3.60972,6.7217 -2.23482,8.0966 1.59971,1.5997 9.40483,2.6565 20.45805,2.7699 8.48,0.087 11.0021,-0.2139 12.25,-1.4619 z m 24.6302,27.2144 c -0.099,-1.443 5.9337,-13.5203 7.1196,-14.2532 1.7195,-1.0628 0.1699,3.9906 -2.4409,7.9601 -1.2306,1.871 -2.7735,4.2452 -3.4287,5.276 -0.6551,1.0307 -1.2176,1.4884 -1.25,1.0171 z m -219.95404,-74.5571 c -1.9739,-1.2499 -0.80737,-6.1134 3.10992,-12.9659 4.7195,-8.2559 10.31618,-13.9166 15.00841,-15.1801 2.18834,-0.5893 4.13493,-0.91523 4.32576,-0.7244 0.19083,0.1908 -1.76709,2.0574 -4.35094,4.1479 -4.91452,3.9762 -5.77251,5.2623 -11.92402,17.8734 -2.07564,4.2552 -3.99889,7.7358 -4.27389,7.7347 -0.275,-10e-4 -1.12786,-0.3997 -1.89524,-0.8856 z m 385.95894,-8.352 c -1.816,-3.4287 -4.315,-7.3589 -5.5533,-8.7339 -3.3842,-3.7578 -5.8756,-8 -4.6982,-8 1.7659,0 6.8914,6.956 10.8009,14.6583 2.0484,4.0356 3.5057,7.5562 3.2384,7.8235 -0.2673,0.2673 -1.9718,-2.3192 -3.7878,-5.7479 z M 858.07499,988.98351 c -0.29868,-0.48327 1.47405,-2.45017 3.93939,-4.3709 4.96366,-3.86716 12.99652,-13.29343 18.87324,-22.14708 8.26171,-12.4468 18.49238,-37.61556 23.00828,-56.60335 2.74226,-11.53023 11.4065,-60.04567 14.10839,-79 1.24876,-8.76031 2.08964,-11.85735 3.52963,-13 1.63746,-1.29934 1.7599,-2.07325 0.91527,-5.78515 -0.82345,-3.61886 -0.57697,-5.47105 1.58524,-11.91214 2.94966,-8.78691 5.66641,-13.04837 9.16703,-14.3793 3.40111,-1.2931 4.81912,-0.15613 2.71081,2.17354 -2.57867,2.84939 -5.3513,11.57061 -6.05789,19.05487 -0.55,5.8257 -0.93835,6.79323 -3.127,7.79044 -2.35076,1.07108 -2.39196,1.21691 -0.69435,2.45823 1.7363,1.26962 1.7235,1.96751 -0.33805,18.42499 -1.17849,9.40796 -3.24185,22.85844 -4.58525,29.88995 -1.34339,7.03151 -3.41658,19.0332 -4.60709,26.67041 -1.19051,7.63721 -2.76169,15.96221 -3.49151,18.5 -0.72982,2.53779 -2.31319,8.21416 -3.5186,12.61416 -4.0293,14.70788 -9.17406,27.92121 -12.45956,32 -1.77212,2.2 -3.81296,5.11552 -4.5352,6.47892 -0.72224,1.36341 -3.0422,4.66632 -5.15547,7.3398 -2.11327,2.67348 -3.8423,5.72047 -3.8423,6.77108 0,1.39179 -0.70752,1.9102 -2.60699,1.9102 -1.87735,0 -2.44984,0.40952 -2.0455,1.46321 0.59782,1.55789 -3.08626,5.00171 -6.51472,6.08986 -1.56253,0.49593 -1.86301,1.19038 -1.36816,3.16201 0.56811,2.26357 0.38922,2.46505 -1.7189,1.93595 -1.62778,-0.40855 -2.87285,0.0165 -4.03959,1.3792 -1.71788,2.00634 -6.1467,2.68397 -7.13115,1.0911 z m 302.49311,-28.0257 c -1.1375,-1.5974 -2.0681,-3.25983 -2.0681,-3.69428 0,-0.43445 1.125,0.73494 2.5,2.59865 1.375,1.86371 2.5,3.52613 2.5,3.69428 0,0.94514 -1.1074,-0.0364 -2.9319,-2.59865 z M 1030.88,838.41007 c -0.3065,-0.79867 -0.2658,-1.92367 0.09,-2.5 1.1647,-1.88455 2.5296,-1.10104 2.5296,1.45211 0,2.71088 -1.7182,3.39807 -2.62,1.04789 z m 0.12,-5.54789 c -0.3399,-0.55 -0.1415,-1 0.441,-1 0.5824,0 1.059,0.45 1.059,1 0,0.55 -0.1984,1 -0.441,1 -0.2425,0 -0.7191,-0.45 -1.059,-1 z m -2,-21.90979 c -2.9413,-0.66001 -2.9573,-0.6968 -0.8157,-1.88169 2.6714,-1.47809 3.433,-1.49461 6.9667,-0.1511 2.2266,0.84654 2.4889,1.24233 1.3151,1.98468 -1.6294,1.03055 -3.0471,1.03968 -7.4661,0.0481 z m -51.82604,-54.65746 c 0.52067,-12.48033 1.12453,-16.43275 2.51064,-16.43275 0.73313,0 0.88598,1.73172 0.46338,5.25 -0.34683,2.8875 -0.63451,7.97649 -0.63929,11.30887 -0.005,3.53907 -0.57854,6.83819 -1.3789,7.93275 -1.18529,1.62098 -1.31429,0.53337 -0.95583,-8.05887 z M 1026,762.86218 c -0.3399,-0.55 -0.1415,-1 0.441,-1 0.5824,0 1.059,0.45 1.059,1 0,0.55 -0.1984,1 -0.441,1 -0.2425,0 -0.7191,-0.45 -1.059,-1 z"
       style="fill:#251c13" />
  </g>
  <g
     inkscape:groupmode="layer"
     id="layer4"
     inkscape:label="light"
     style="display:inline">
    <path
       id="path6509-8"
       d="m 340.51677,721.25161 c -4.80405,-1.44197 -8.92089,-5.37426 -14.83303,-14.16803 -7.74145,-11.51474 -10.98295,-18.8323 -10.89598,-24.5973 0.0972,-6.44171 3.09372,-15.33698 6.22433,-18.47708 1.44537,-1.44975 3.39286,-3.80722 4.32777,-5.23884 1.55287,-2.37791 1.56138,-2.65608 0.0983,-3.2175 -0.88082,-0.33801 -9.47268,-0.61399 -19.09303,-0.61329 -9.62033,7e-4 -21.05552,-0.42672 -25.41152,-0.94979 -4.356,-0.52308 -17.94375,-1.47043 -30.195,-2.10521 -29.19636,-1.51278 -30.96446,-1.6362 -39.105,-2.72983 -3.8115,-0.51206 -10.71675,-0.75694 -15.345,-0.54419 -12.97011,0.59622 -36.23606,-4.08699 -40.79337,-8.21129 -2.7405,-2.48011 -2.15594,-7.05237 1.92098,-15.02555 4.61969,-9.03467 16.21392,-23.02439 20.23855,-24.42006 5.73283,-1.98804 27.99162,-24.73164 33.41504,-34.14283 6.53856,-11.34627 8.57967,-15.41474 11.41471,-22.75251 7.1169,-18.42028 8.5298,-23.97124 14.84593,-58.32629 4.02464,-21.89107 5.6733,-31.79464 8.50145,-51.06871 0.63917,-4.356 1.78191,-9.123 2.53942,-10.59334 0.75751,-1.47034 1.37729,-4.5408 1.37729,-6.82327 0,-9.65708 6.9473,-24.9561 12.96996,-28.5618 1.41622,-0.84787 3.64372,-2.28842 4.95,-3.20121 3.30824,-2.31171 12.55799,-4.52692 24.18945,-5.79313 6.47844,-0.70524 10.25033,-1.57473 10.98623,-2.53251 0.61634,-0.8022 1.42513,-6.67994 1.7973,-13.06165 0.37218,-6.3817 0.90839,-12.40824 1.19159,-13.3923 0.82038,-2.85076 4.10398,-3.48772 19.26626,-3.73732 7.83431,-0.12897 15.19018,-0.57642 16.34636,-0.99433 1.15619,-0.41791 3.04245,-2.28123 4.19168,-4.14073 1.95335,-3.16059 2.07723,-4.6007 1.90101,-22.09966 -0.40876,-40.59385 -0.12506,-42.18175 7.53646,-42.18175 2.07445,0 4.14751,0.37867 4.60681,0.8415 0.45929,0.46282 1.10514,14.86029 1.4352,31.99437 0.41182,21.37802 0.97965,31.93954 1.80968,33.66 l 1.20956,2.50713 15.65532,0 c 19.5508,0 18.97238,-0.43916 19.87365,15.08878 0.75603,13.02571 1.76087,15.3557 7.03557,16.31375 24.13171,4.38312 31.14794,6.35848 31.14794,8.76939 0,0.55884 1.30975,1.47265 2.91056,2.03071 5.55789,1.93749 11.87541,13.17771 13.91524,24.75816 0.61025,3.46457 1.56763,8.30396 2.12749,10.75421 0.55986,2.45025 1.61124,8.68725 2.33639,13.86 0.72515,5.17275 2.20665,14.3055 3.29221,20.295 1.08557,5.9895 3.17762,18.24075 4.649,27.225 6.44174,39.33317 15.90787,67.62711 28.29964,84.58664 4.31442,5.90477 23.373,25.13301 30.61244,30.88496 11.7914,9.3686 22.64319,25.067 23.50129,33.99738 0.4399,4.57815 0.31646,4.87325 -2.68843,6.42714 -1.73221,0.89577 -7.01979,2.47203 -11.75016,3.5028 -9.39844,2.04796 -37.62735,5.69503 -44.73567,5.77968 -2.45025,0.0292 -10.02375,0.51916 -16.83,1.08885 -14.38875,1.20434 -43.49847,2.67036 -72.0225,3.62719 -11.02613,0.36986 -20.0475,0.96599 -20.0475,1.32472 0,0.35872 1.59716,2.18749 3.54925,4.06393 1.9521,1.87643 4.73647,5.41646 6.1875,7.86671 2.30994,3.90062 2.6349,5.50216 2.61138,12.87 -0.0238,7.43809 -0.39727,9.17317 -3.2175,14.94587 -1.75485,3.59198 -3.19063,6.79036 -3.19063,7.10749 0,1.57809 -8.10033,12.48707 -10.38244,13.98237 -5.71816,3.74668 -28.43274,5.95686 -36.45943,3.54757 z"
       style="fill:#ffffbf;fill-opacity:1;display:inline" />
  </g>
  <g
     inkscape:groupmode="layer"
     id="layer3"
     inkscape:label="medium"
     style="display:inline">
    <path
       id="path6507-5"
       d="m 337.42503,719.33884 c -3.24999,-1.70076 -5.83514,-4.41607 -10.13239,-10.6425 -9.17571,-13.29507 -11.9529,-19.3059 -11.86689,-25.68419 0.0968,-7.18407 2.71063,-14.53136 6.69155,-18.81 1.77315,-1.90575 3.96339,-4.57326 4.86724,-5.9278 1.56965,-2.3524 1.543,-2.54003 -0.5947,-4.18549 -1.85663,-1.42912 -1.9476,-1.72644 -0.53375,-1.74469 2.60596,-0.0337 11.97489,-4.43296 13.581,-6.37714 1.29101,-1.56274 2.78452,-8.04462 3.31916,-14.4054 0.37494,-4.46047 -8.119,-6.91185 -34.44443,-9.94077 -44.15556,-5.0804 -85.01671,-2.88377 -101.47247,5.455 -6.4032,3.24475 -13.86254,12.2921 -13.86254,16.81373 0,2.991 -0.28963,3.29975 -3.44037,3.66758 -4.99162,0.58275 -21.82677,-2.48857 -28.73462,-5.24221 -5.09708,-2.0318 -5.98551,-2.76512 -6.26072,-5.16759 -0.78642,-6.86531 12.64067,-27.01045 22.44043,-33.66813 6.89514,-4.68436 23.33834,-20.93757 29.71038,-29.36709 14.1845,-18.76456 22.72394,-42.00818 29.82456,-81.18 1.72728,-9.52875 3.96581,-21.78 4.97453,-27.225 1.00872,-5.445 2.79141,-16.33717 3.96153,-24.20482 1.17013,-7.86764 2.79753,-15.6005 3.61645,-17.18412 0.81893,-1.58362 1.23219,-3.90234 0.91836,-5.1527 -0.77143,-3.07366 3.31751,-16.82939 6.73715,-22.66453 1.78694,-3.04919 3.92579,-5.2112 6.02173,-6.08693 1.78775,-0.74698 3.49267,-1.98932 3.7887,-2.76078 0.7726,-2.01336 8.58778,-4.429 18.42618,-5.69545 4.6754,-0.60184 10.72459,-1.3873 13.44266,-1.74548 l 4.94194,-0.65124 0.71201,-4.44697 c 0.3916,-2.44584 0.98767,-8.71049 1.3246,-13.92145 0.33693,-5.21095 0.96828,-10.04998 1.40301,-10.75339 1.25001,-2.02255 8.36926,-2.94749 23.04495,-2.99402 l 13.59845,-0.0431 2.5897,-3.91329 2.5897,-3.91329 0.14685,-28.84372 0.14685,-28.84377 2.33717,-1.89299 c 2.73154,-2.2124 4.10105,-2.35393 6.34262,-0.65549 1.43424,1.08671 1.69569,4.92063 2.14566,31.46467 0.52803,31.14808 1.13257,36.01785 4.60826,37.12099 1.04678,0.33223 8.33382,0.46181 16.19343,0.28795 10.65692,-0.23574 14.61562,0.007 15.57009,0.95445 0.77212,0.76649 1.74912,6.41926 2.46266,14.24847 0.78628,8.62738 1.65996,13.4551 2.60623,14.40138 0.7829,0.7829 5.60405,2.02188 10.71367,2.75328 17.66301,2.52835 22.97277,4.11047 25.43384,7.57842 0.7115,1.00259 1.84924,1.82289 2.5283,1.82289 5.14587,0 14.44347,18.95155 14.48129,29.51758 0.01,1.80543 0.44015,4.08295 0.96366,5.06118 0.52352,0.97823 1.65964,6.62906 2.5246,12.55742 3.77507,25.87199 12.5931,74.81666 15.05147,83.54382 4.84229,17.18983 7.74338,24.90851 14.32569,38.115 6.97049,13.98532 15.77585,23.94707 42.73771,48.35068 8.64646,7.826 15.19323,17.09668 18.19125,25.75997 1.74072,5.03026 0.99148,6.95021 -3.46728,8.88481 -7.50202,3.25506 -36.64703,7.42669 -55.66532,7.96759 -7.35075,0.20907 -20.71575,1.07344 -29.7,1.92083 -8.98425,0.8474 -29.7,2.04541 -46.035,2.66227 -16.335,0.61685 -30.74811,1.33216 -32.02914,1.58957 -2.22392,0.44688 -2.10586,0.70411 2.61317,5.69379 8.91753,9.42898 11.42935,17.30823 8.63012,27.07151 -0.90341,3.15094 -2.49905,7.20232 -3.54586,9.00307 -1.04681,1.80075 -1.90329,3.73849 -1.90329,4.30607 0,2.69143 -8.53626,13.97899 -11.85021,15.66964 -4.99784,2.54971 -13.71565,3.9752 -24.31091,3.9752 -7.54777,0 -9.79873,-0.38268 -13.43067,-2.28331 z m 10.38779,-38.74229 c -2.01952,-2.4255 -5.79401,-2.94467 -9.56145,-3.5442 -3.82191,-0.60819 -7.91033,-0.88476 -6.59535,3.9006 1.11069,4.04197 7.27171,7.15225 10.39305,7.1478 10.78901,-0.0153 8.57527,-3.8907 5.76375,-7.5042 z m -18.4635,-71.3036 c 1.76962,-0.41554 3.2175,-0.94576 3.2175,-1.17825 0,-0.2325 -1.00238,-1.78239 -2.2275,-3.44422 l -2.2275,-3.0215 2.475,-1.91298 c 16.08059,-12.429 16.76753,-13.4087 15.00428,-21.39887 -0.57288,-2.59598 -1.31378,-8.72948 -1.64644,-13.62998 -0.33266,-4.9005 -1.69226,-14.39684 -3.02134,-21.10298 -1.32908,-6.70613 -2.43237,-14.50238 -2.45177,-17.325 -0.0194,-2.82261 -0.60358,-7.58227 -1.29819,-10.57702 -1.01335,-4.36891 -1.0282,-9.35806 -0.0751,-25.245 0.65328,-10.89 0.99642,-26.57033 0.76253,-34.84519 -0.32407,-11.46607 -0.0623,-16.44583 1.10042,-20.9329 0.83911,-3.23824 1.52566,-6.12299 1.52566,-6.41053 0,-2.2253 -15.83347,-3.67128 -42.075,-3.84245 -13.30612,-0.0868 -17.82186,0.23317 -21.5671,1.52815 -2.60541,0.90086 -5.80525,1.63792 -7.11079,1.63792 -2.76383,0 -3.1029,0.88785 -3.96996,10.395 -2.69144,29.51166 -13.31009,91.19931 -20.34695,118.20294 -3.95869,15.1913 -3.95181,22.53595 0.029,30.95067 1.63307,3.45202 2.96957,7.73408 2.97,9.51569 6.7e-4,2.78097 -0.65699,3.65646 -4.64804,6.1875 -2.55686,1.62151 -5.34123,2.96174 -6.1875,2.97831 -1.36545,0.0267 -1.36943,0.12927 -0.0353,0.91095 0.82684,0.48446 8.62309,1.36861 17.32501,1.96478 8.70191,0.59617 17.60366,1.23245 19.78166,1.41397 7.28721,0.60733 51.43863,-0.0538 54.6975,-0.81901 z m 11.99584,-193.3333 c 2.84663,-5.59579 6.2297,-17.31546 5.27421,-18.27094 -1.86544,-1.86545 -14.61873,-3.02798 -33.85255,-3.08584 -21.84065,-0.0657 -31.15937,1.08879 -35.87151,4.44414 -3.30264,2.35167 -6.40904,8.07133 -7.25422,13.35679 -0.3345,2.09185 -0.68043,4.24885 -0.76872,4.79335 -0.28387,1.7504 7.11125,2.19113 39.17183,2.33451 l 31.41237,0.14049 1.88859,-3.7125 z m -14.71834,-25.9875 c 0,-0.62064 -5.26338,-0.93452 -14.1075,-0.84131 -9.44524,0.0996 -12.63521,0.3776 -9.6525,0.84131 7.15668,1.11264 23.76,1.11264 23.76,0 z m 14.75205,-11.51391 c 2.59437,-0.51888 3.0108,-0.96657 2.47352,-2.65933 -0.3553,-1.11949 -0.75567,-6.07336 -0.88971,-11.0086 -0.21079,-7.76146 0.0207,-9.26415 1.71458,-11.12805 l 1.95828,-2.1549 -15.04102,0.34406 c -8.27257,0.18923 -15.22443,0.52746 -15.44859,0.75162 -0.22416,0.22416 -0.63549,5.80707 -0.91407,12.40646 l -0.50651,11.9989 3.72323,0.6078 c 2.04778,0.33429 4.39149,0.7492 5.20824,0.92204 2.8152,0.59571 14.60971,0.54247 17.72205,-0.08 z"
       style="fill:#e8bd00;fill-opacity:1;display:inline"
       sodipodi:nodetypes="cssssssssssssssssssssssssscccsscccccccsssssssssscsssssssssssssssssccsssccscccsssssssssssssssssssssccsssssccccssccsscccscccsc" />
  </g>
  <g
     inkscape:groupmode="layer"
     id="layer2"
     inkscape:label="dark"
     style="display:inline">
    <path
       id="path6503-3"
       d="m 323.32021,657.95889 c -153.68657,-2.58068 -143.56135,-4.90873 -163.42361,-11.01763 -10.75768,-2.76136 -12.83261,-5.47563 -12.08948,-9.96478 1.10898,-6.69916 6.78825,-18.88005 15.42869,-26.61765 18.56895,-16.62872 34.15872,-29.11016 38.93128,-35.27493 6.60856,-8.53637 16.38309,-27.98304 20.88509,-41.5514 4.94272,-14.89662 12.81291,-53.49938 18.70946,-91.7686 1.49785,-9.72125 3.25727,-18.30743 3.90983,-19.0804 0.65254,-0.77298 1.21138,-3.72723 1.24198,-6.565 0.12268,-11.39972 7.82731,-26.68478 14.24693,-28.26426 1.35969,-0.33453 2.69185,-1.43183 2.96037,-2.43842 0.67155,-2.51739 12.55111,-5.22742 26.24772,-5.98777 9.08675,-0.50443 10.8555,-0.8829 11.74554,-2.51318 0.57632,-1.05562 1.32228,-7.6133 1.65771,-14.57261 0.81959,-17.00392 0.39875,-16.56924 16.32673,-16.86375 4.73214,-1.12558 28.92539,0.80319 25.7833,-6.29554 0.43678,-1.49274 2.33993,-16.18942 2.67075,-32.35374 0.46545,-22.74334 -1.62899,-29.51683 -0.53475,-30.8075 1.68055,-1.98217 10.69991,-2.15693 11.83437,-0.40533 0.44974,0.69438 1.43787,12.94325 1.26077,25.9975 -0.37403,27.57087 -4.3688,38.92596 14.10612,42.198 21.86135,1.7891 27.00547,-4.80613 26.3575,15.64247 -0.5477,17.28411 7.18091,17.60734 9.31859,18.10328 14.61343,1.37039 21.8481,1.17836 33.13864,7.12825 6.09682,2.856 12.11252,19.26478 13.26706,30.818 0.30532,3.05525 0.94152,6.29466 1.41377,7.19868 0.47226,0.90403 1.83115,7.94878 3.01978,15.655 3.81818,24.7544 12.25048,70.26345 14.94747,80.67132 4.09413,15.79949 6.44773,22.29694 12.92631,35.68465 9.47207,19.57365 10.03678,20.2259 49.55129,57.23535 7.60671,7.12445 14.28512,16.85419 16.49873,24.03719 1.03905,3.37153 0.94221,4.06768 -0.7987,5.73656 -0.54487,0.52233 -1.25162,3.49546 -12.59741,5.20683 -11.34576,1.71139 -43.4275,6.80703 -75.1951,8.74637 -67.723,4.42024 -90.56939,-0.62499 -82.61056,6.1498 20.59319,17.52954 9.14639,30.95839 5.65782,38.49825 -5.87819,12.70459 -9.49895,17.98266 -13.81781,20.14256 -5.34485,2.67303 -14.33308,4.09744 -25.85534,4.09744 -9.05648,0 -10.28489,-0.23859 -14.30019,-2.7775 -4.49194,-2.84029 -12.54001,-13.67725 -18.2635,-24.59234 -5.70042,-10.87105 -5.60312,-22.04515 4.72496,-33.74233 6.30011,-10.15128 6.01813,-4.13294 0.71789,-5.49284 z M 171.97589,636.37958 c 0,2.99838 122.8815,17.37296 176.68709,11.62852 6.1359,-0.65508 -0.88094,23.88059 -14.78294,26.92491 -17.27943,3.78391 2.40927,52.50582 18.77466,40.52112 28.51177,-20.87972 18.01712,-35.91428 11.22137,-37.5104 -12.03522,-2.82672 -20.51449,-14.56414 -2.49855,-28.77975 -4.23589,-1.21098 172.37468,-3.68501 172.97389,-16.88022 0.30826,-6.78773 -3.52157,-5.46072 -8.15451,-7.65929 -7.18069,-3.40763 -22.62016,-6.76913 -39.77317,-8.65953 -13.03969,-1.43707 -20.50641,-1.63437 -35.39082,-2.73092 30.41952,-3.61988 46.72942,-6.1984 46.72118,-7.75834 0,-0.32823 -2.17105,-1.73303 -4.82092,-3.12178 -7.28486,-3.81787 -8.40673,-5.96852 -9.48335,-18.18 -0.75889,-8.60764 -4.80254,-13.35219 -9.40318,-26.91507 -6.8979,-20.33529 -14.41064,-28.7458 -18.39869,-51.18993 -3.03937,-17.10517 -15.49606,-50.0056 -17.71324,-65.2555 -0.64134,-4.41128 -0.50465,-12.00157 -0.95548,-13.16399 -0.92049,-2.37334 3.62318,-5.44723 -5.67657,-6.66806 -5.17903,-0.67988 -16.99157,-1.31413 -14.16663,-2.00706 1.69999,-0.41699 9.91543,-0.79889 13.11039,-1.16034 8.73969,-0.47595 9.50703,-2.47651 6.7979,-8.45374 -2.55592,-7.79048 -5.05928,-9.9105 -9.86893,-12.31585 -4.47414,-2.23756 -9.71172,-5.07188 -26.52463,-5.37414 -8.70107,-0.15642 -24.40965,-1.73453 -19.57572,-2.53873 2.83333,-0.47137 26.36283,-1.13714 32.45448,-1.4795 6.73223,-0.37837 -6.7664,-3.83321 -6.7664,-4.48543 0.34498,0.0944 -17.17178,-0.23612 -18.14908,-7.81517 -0.30181,-2.34054 -0.0526,-17.15191 -3.06101,-20.39852 -3.00839,-3.2466 -17.06199,-4.5922 -21.93676,-7.01439 -6.94423,-3.45048 -8.1789,-6.24658 -9.26405,-16.06672 -0.39914,9.23789 -0.899,3.50819 -4.19976,12.49552 -7.07887,4.86179 -21.99017,2.34212 -23.48599,2.35595 -6.97243,0.0645 -11.48221,0.55401 -12.5592,1.36317 -1.3022,0.97837 -1.84205,3.93781 -2.39883,13.14992 -0.6393,10.57782 -0.51695,12.10566 1.1105,13.86855 1.45371,1.57467 1.57475,2.28141 0.58994,3.44465 -1.71815,2.02945 1.51286,3.60862 9.02786,4.4124 l 5.83582,0.62418 -4.1212,0.75069 c -2.26666,0.41288 -13.04618,0.77689 -23.95449,0.8089 -11.86629,0.0349 -19.8333,0.44555 -19.8333,1.02245 0,0.53032 1.73863,1.24749 3.86363,1.59369 6.62879,1.07995 7.19363,1.75414 2.31817,2.76697 -10.07178,2.0923 -12.38914,2.90658 -15.44466,5.42697 -3.88962,3.20842 -6.1608,7.32426 -7.79481,14.12595 -1.42953,5.95045 -1.03466,7.00818 2.98554,7.99731 l 2.9072,0.71528 -3.12719,2.79998 c -1.71997,1.53999 -3.6302,2.96434 -4.24498,3.16522 -0.62295,0.20357 -2.21294,8.63079 -3.59182,19.03732 -7.96806,60.13566 -14.0569,90.6896 -23.38115,117.32744 -4.1586,11.87999 -4.34705,12.93502 -4.15654,23.25262 0.10977,5.94439 -0.24323,11.94966 -0.78443,13.34506 -1.44159,3.71699 -8.38763,7.6478 -13.66473,7.73294 -2.41959,0.0391 -5.30962,0.41991 -6.4223,0.84637 -1.85136,0.70959 -1.79587,0.83128 0.65387,1.43401 3.77101,0.92782 32.59131,4.43378 43.21386,5.25694 11.94108,0.92532 14.07289,2.45073 3.48857,2.49618 -18.97944,0.0815 -57.22635,5.57002 -66.90411,9.60078 -8.7793,3.65657 -18.3018,5.29363 -18.3018,11.29041 z"
       style="fill:#544832;fill-opacity:1"
       sodipodi:nodetypes="ccssssssssssssccsssscsccssssssssscsssscscccsssscssscsssssssssccsssscsssccssssscccsssssscccssssssssssss" />
  </g>
</svg>
