<?xml version="1.0" encoding="UTF-8" standalone="no"?>
<!-- Created with Inkscape (http://www.inkscape.org/) -->

<svg
   xmlns:dc="http://purl.org/dc/elements/1.1/"
   xmlns:cc="http://creativecommons.org/ns#"
   xmlns:rdf="http://www.w3.org/1999/02/22-rdf-syntax-ns#"
   xmlns:svg="http://www.w3.org/2000/svg"
   xmlns="http://www.w3.org/2000/svg"
   xmlns:sodipodi="http://sodipodi.sourceforge.net/DTD/sodipodi-0.dtd"
   xmlns:inkscape="http://www.inkscape.org/namespaces/inkscape"
   width="1024"
   height="500"
   id="svg8073"
   version="1.1"
   inkscape:version="0.47 r22583"
   inkscape:export-filename="/home/justin/projects/ringtoggle/raw/feature-graphicpng.png"
   inkscape:export-xdpi="72"
   inkscape:export-ydpi="72"
   sodipodi:docname="New document 43">
  <defs
     id="defs8075">
    <inkscape:perspective
       sodipodi:type="inkscape:persp3d"
       inkscape:vp_x="0 : 16 : 1"
       inkscape:vp_y="0 : 1000 : 0"
       inkscape:vp_z="32 : 16 : 1"
       inkscape:persp3d-origin="16 : 10.666667 : 1"
       id="perspective8081" />
    <inkscape:perspective
       id="perspective8091"
       inkscape:persp3d-origin="0.5 : 0.33333333 : 1"
       inkscape:vp_z="1 : 0.5 : 1"
       inkscape:vp_y="0 : 1000 : 0"
       inkscape:vp_x="0 : 0.5 : 1"
       sodipodi:type="inkscape:persp3d" />
    <inkscape:perspective
       id="perspective8631"
       inkscape:persp3d-origin="0.5 : 0.33333333 : 1"
       inkscape:vp_z="1 : 0.5 : 1"
       inkscape:vp_y="0 : 1000 : 0"
       inkscape:vp_x="0 : 0.5 : 1"
       sodipodi:type="inkscape:persp3d" />
    <inkscape:perspective
       id="perspective8631-7"
       inkscape:persp3d-origin="0.5 : 0.33333333 : 1"
       inkscape:vp_z="1 : 0.5 : 1"
       inkscape:vp_y="0 : 1000 : 0"
       inkscape:vp_x="0 : 0.5 : 1"
       sodipodi:type="inkscape:persp3d" />
    <filter
       id="filter8848"
       inkscape:menu-tooltip="Glowing metal texture"
       inkscape:menu="Bevels"
       inkscape:label="Glowing metal"
       color-interpolation-filters="sRGB">
      <feGaussianBlur
         id="feGaussianBlur8850"
         stdDeviation="3"
         result="result10" />
      <feBlend
         id="feBlend8852"
         in2="SourceGraphic"
         result="result5"
         mode="multiply"
         in="result10" />
      <feComposite
         id="feComposite8854"
         in2="SourceGraphic"
         in="result5"
         result="fbSourceGraphic"
         operator="over" />
      <feGaussianBlur
         id="feGaussianBlur8856"
         result="result9"
         stdDeviation="5" />
      <feSpecularLighting
         id="feSpecularLighting8858"
         in="result9"
         result="result1"
         lighting-color="rgb(255,255,255)"
         surfaceScale="1"
         specularConstant="2.2"
         specularExponent="45">
        <fePointLight
           id="fePointLight8860"
           x="-5000"
           y="-10000"
           z="20000" />
      </feSpecularLighting>
      <feComposite
         id="feComposite8862"
         in2="fbSourceGraphic"
         in="result1"
         result="result2"
         operator="in" />
      <feComposite
         id="feComposite8864"
         in2="fbSourceGraphic"
         in="result2"
         result="result4"
         operator="arithmetic"
         k2="2"
         k3="0.8" />
      <feBlend
         id="feBlend8866"
         in2="result4"
         in="result4"
         mode="multiply" />
    </filter>
    <filter
       id="filter8868"
       inkscape:menu-tooltip="Glowing metal texture"
       inkscape:menu="Bevels"
       inkscape:label="Glowing metal"
       color-interpolation-filters="sRGB">
      <feGaussianBlur
         id="feGaussianBlur8870"
         stdDeviation="3"
         result="result10" />
      <feBlend
         id="feBlend8872"
         in2="SourceGraphic"
         result="result5"
         mode="multiply"
         in="result10" />
      <feComposite
         id="feComposite8874"
         in2="SourceGraphic"
         in="result5"
         result="fbSourceGraphic"
         operator="over" />
      <feGaussianBlur
         id="feGaussianBlur8876"
         result="result9"
         stdDeviation="5" />
      <feSpecularLighting
         id="feSpecularLighting8878"
         in="result9"
         result="result1"
         lighting-color="rgb(255,255,255)"
         surfaceScale="1"
         specularConstant="2.2"
         specularExponent="45">
        <fePointLight
           id="fePointLight8880"
           x="-5000"
           y="-10000"
           z="20000" />
      </feSpecularLighting>
      <feComposite
         id="feComposite8882"
         in2="fbSourceGraphic"
         in="result1"
         result="result2"
         operator="in" />
      <feComposite
         id="feComposite8884"
         in2="fbSourceGraphic"
         in="result2"
         result="result4"
         operator="arithmetic"
         k2="2"
         k3="0.8" />
      <feBlend
         id="feBlend8886"
         in2="result4"
         in="result4"
         mode="multiply" />
    </filter>
    <filter
       id="filter8888"
       inkscape:menu-tooltip="Glowing metal texture"
       inkscape:menu="Bevels"
       inkscape:label="Glowing metal"
       color-interpolation-filters="sRGB">
      <feGaussianBlur
         id="feGaussianBlur8890"
         stdDeviation="3"
         result="result10" />
      <feBlend
         id="feBlend8892"
         in2="SourceGraphic"
         result="result5"
         mode="multiply"
         in="result10" />
      <feComposite
         id="feComposite8894"
         in2="SourceGraphic"
         in="result5"
         result="fbSourceGraphic"
         operator="over" />
      <feGaussianBlur
         id="feGaussianBlur8896"
         result="result9"
         stdDeviation="5" />
      <feSpecularLighting
         id="feSpecularLighting8898"
         in="result9"
         result="result1"
         lighting-color="rgb(255,255,255)"
         surfaceScale="1"
         specularConstant="2.2"
         specularExponent="45">
        <fePointLight
           id="fePointLight8900"
           x="-5000"
           y="-10000"
           z="20000" />
      </feSpecularLighting>
      <feComposite
         id="feComposite8902"
         in2="fbSourceGraphic"
         in="result1"
         result="result2"
         operator="in" />
      <feComposite
         id="feComposite8904"
         in2="fbSourceGraphic"
         in="result2"
         result="result4"
         operator="arithmetic"
         k2="2"
         k3="0.8" />
      <feBlend
         id="feBlend8906"
         in2="result4"
         in="result4"
         mode="multiply" />
    </filter>
  </defs>
  <sodipodi:namedview
     id="base"
     pagecolor="#ffffff"
     bordercolor="#666666"
     borderopacity="1.0"
     inkscape:pageopacity="1"
     inkscape:pageshadow="2"
     inkscape:zoom="1"
     inkscape:cx="519.59706"
     inkscape:cy="240.61458"
     inkscape:current-layer="layer1"
     showgrid="true"
     inkscape:grid-bbox="true"
     inkscape:document-units="px"
     inkscape:window-width="1539"
     inkscape:window-height="954"
     inkscape:window-x="353"
     inkscape:window-y="1"
     inkscape:window-maximized="0" />
  <metadata
     id="metadata8078">
    <rdf:RDF>
      <cc:Work
         rdf:about="">
        <dc:format>image/svg+xml</dc:format>
        <dc:type
           rdf:resource="http://purl.org/dc/dcmitype/StillImage" />
        <dc:title></dc:title>
      </cc:Work>
    </rdf:RDF>
  </metadata>
  <g
     id="layer1"
     inkscape:label="Layer 1"
     inkscape:groupmode="layer"
     transform="translate(0,468)">
    <path
       id="path6509-8"
       d="m 248.66509,-29.412013 c -4.32364,-1.297773 -8.0288,-4.836834 -13.34972,-12.751227 -6.96731,-10.363266 -9.88466,-16.94907 -9.80639,-22.13757 0.0875,-5.797539 2.78435,-13.803282 5.6019,-16.629372 1.30083,-1.304775 3.05358,-3.426498 3.89499,-4.714956 1.39759,-2.140119 1.40525,-2.390472 0.0885,-2.89575 -0.79273,-0.304209 -8.52541,-0.552591 -17.18372,-0.551961 -8.6583,6.3e-4 -18.94997,-0.384048 -22.87037,-0.854811 -3.9204,-0.470772 -16.14938,-1.323387 -27.1755,-1.894689 -26.27672,-1.361502 -27.86801,-1.47258 -35.1945,-2.456847 -3.43035,-0.460854 -9.64508,-0.681246 -13.8105,-0.489771 -11.6731,0.536598 -32.612455,-3.678291 -36.714034,-7.390163 -2.46645,-2.2321 -1.940346,-6.34713 1.728882,-13.52299 4.157721,-8.13121 14.592528,-20.72195 18.214692,-21.97806 5.15955,-1.78923 25.19246,-22.25847 30.07354,-30.72854 5.8847,-10.21165 7.7217,-13.87327 10.27324,-20.47726 6.40521,-16.57826 7.67682,-21.57412 13.36134,-52.49366 3.62217,-19.70197 5.10597,-28.61518 7.6513,-45.96184 0.57525,-3.9204 1.60372,-8.2107 2.28548,-9.53401 0.68176,-1.32331 1.23956,-4.08672 1.23956,-6.14094 0,-8.69137 6.25257,-22.46049 11.67296,-25.70562 1.2746,-0.76309 3.27935,-2.05958 4.455,-2.88109 2.97742,-2.08054 11.30219,-4.07423 21.77051,-5.21382 5.83059,-0.63471 9.2253,-1.41726 9.88761,-2.27926 0.5547,-0.72198 1.28261,-6.01194 1.61757,-11.75548 0.33496,-5.74353 0.81755,-11.16742 1.07243,-12.05307 0.73834,-2.56569 3.69358,-3.13895 17.33963,-3.36359 7.05088,-0.11607 13.67116,-0.51878 14.71172,-0.8949 1.04058,-0.37612 2.73821,-2.0531 3.77252,-3.72665 1.75801,-2.84454 1.8695,-4.14063 1.71091,-19.8897 -0.36789,-36.53446 -0.11256,-37.96357 6.78281,-37.96357 1.867,0 3.73276,0.3408 4.14613,0.75735 0.41336,0.41653 0.99462,13.37426 1.29168,28.79493 0.37064,19.24022 0.88168,28.74559 1.62871,30.294 l 1.0886,2.25642 14.08979,0 c 17.59572,0 17.07514,-0.39525 17.88629,13.5799 0.68042,11.72314 1.58478,13.82013 6.33201,14.68237 21.71854,3.94481 28.03315,5.72264 28.03315,7.89245 0,0.50296 1.17877,1.32539 2.6195,1.82764 5.0021,1.74374 10.68787,11.85994 12.52372,22.28235 0.54922,3.11811 1.41086,7.47356 1.91474,9.67879 0.50387,2.20522 1.45011,7.81852 2.10275,12.474 0.65263,4.65547 1.98598,12.87495 2.96299,18.2655 0.97701,5.39055 2.85986,16.41667 4.1841,24.5025 5.79756,35.39985 14.31708,60.8644 25.46967,76.12797 3.88298,5.3143 21.0357,22.61971 27.5512,27.79647 10.61226,8.43174 20.37887,22.5603 21.15116,30.59764 0.39591,4.12033 0.28481,4.38592 -2.41959,5.78442 -1.55899,0.8062 -6.31781,2.224832 -10.57514,3.152525 -8.4586,1.843164 -33.86462,5.125527 -40.2621,5.201712 -2.20523,0.02628 -9.02138,0.467244 -15.147,0.979965 -12.94988,1.083906 -39.14863,2.403324 -64.82025,3.264471 -9.92352,0.332874 -18.04275,0.869391 -18.04275,1.192248 0,0.322848 1.43744,1.968741 3.19432,3.657537 1.75689,1.688787 4.26282,4.874814 5.56875,7.080039 2.07895,3.510558 2.37141,4.951944 2.35024,11.583 -0.0214,6.694281 -0.35754,8.255853 -2.89575,13.451283 -1.57936,3.232782 -2.87156,6.111324 -2.87156,6.396741 0,1.420281 -7.2903,11.238363 -9.3442,12.584133 -5.14634,3.372012 -25.58947,5.361174 -32.81349,3.192813 z"
       style="fill:#ffffbf;fill-opacity:1;display:inline" />
    <path
       id="path6507-5"
       d="m 245.88253,-31.133506 c -2.92499,-1.530684 -5.25163,-3.974463 -9.11915,-9.57825 -8.25814,-11.965563 -10.75761,-17.37531 -10.6802,-23.115771 0.0871,-6.465663 2.43956,-13.078224 6.02239,-16.929 1.59584,-1.715175 3.56705,-4.115934 4.38052,-5.33502 1.41268,-2.11716 1.3887,-2.286027 -0.53523,-3.766941 -1.67097,-1.286208 -1.75284,-1.553796 -0.48038,-1.570221 2.34537,-0.03033 10.7774,-3.989664 12.2229,-5.739426 1.16191,-1.406466 2.50607,-7.240155 2.98725,-12.964865 0.33744,-4.01442 -7.3071,-6.22066 -30.99999,-8.94669 -39.74001,-4.57236 -76.51504,-2.59539 -91.32522,4.9095 -5.76288,2.92028 -12.47629,11.06289 -12.47629,15.132359 0,2.6919 -0.26067,2.969775 -3.09633,3.300822 -4.49246,0.524475 -19.644097,-2.239713 -25.861162,-4.717991 -4.587372,-1.82862 -5.386959,-2.48861 -5.634648,-4.65083 -0.707778,-6.17878 11.376603,-24.3094 20.19639,-30.30132 6.20562,-4.21592 21.0045,-18.84381 26.73934,-26.43038 12.76605,-16.8881 20.45155,-37.80736 26.8421,-73.062 1.55456,-8.57587 3.56923,-19.602 4.47708,-24.5025 0.90785,-4.9005 2.51227,-14.70345 3.56538,-21.78434 1.05311,-7.08087 2.51777,-14.04045 3.2548,-15.4657 0.73704,-1.42526 1.10897,-3.51211 0.82653,-4.63743 -0.69429,-2.7663 2.98576,-15.14645 6.06343,-20.39808 1.60825,-2.74427 3.53321,-4.69008 5.41956,-5.47824 1.60897,-0.67228 3.1434,-1.79039 3.40983,-2.4847 0.69534,-1.81202 7.729,-3.9861 16.58356,-5.1259 4.20786,-0.54166 9.65213,-1.24857 12.09839,-1.57094 l 4.44775,-0.58611 0.64081,-4.00228 c 0.35244,-2.20125 0.8889,-7.83944 1.19214,-12.5293 0.30324,-4.68986 0.87145,-9.04498 1.26271,-9.67805 1.12501,-1.8203 7.53233,-2.65274 20.74045,-2.69462 l 12.23861,-0.0388 2.33073,-3.52196 2.33073,-3.52196 0.13216,-25.95935 0.13217,-25.95939 2.10345,-1.70369 c 2.45839,-1.99116 3.69095,-2.11854 5.70836,-0.58994 1.29082,0.97803 1.52612,4.42856 1.93109,28.3182 0.47523,28.03327 1.01932,32.41606 4.14744,33.40889 0.9421,0.29901 7.50044,0.41563 14.57408,0.25915 9.59123,-0.21216 13.15406,0.006 14.01309,0.85901 0.6949,0.68984 1.5742,5.77733 2.21639,12.82362 0.70765,7.76464 1.49396,12.10959 2.34561,12.96124 0.70461,0.70461 5.04364,1.8197 9.6423,2.47796 15.89671,2.27551 20.67549,3.69942 22.89046,6.82057 0.64035,0.90234 1.66431,1.64061 2.27547,1.64061 4.63128,0 12.99912,17.05639 13.03316,26.56582 0.009,1.62488 0.39613,3.67465 0.86729,4.55506 0.47117,0.88041 1.49368,5.96615 2.27214,11.30168 3.39756,23.28479 11.33379,67.33499 13.54632,75.18944 4.35806,15.47084 6.96905,22.41765 12.89312,34.3035 6.27345,12.58678 14.19827,21.55236 38.46394,43.51561 7.78182,7.0434 13.67391,15.38701 16.37213,23.18397 1.56665,4.52723 0.89233,6.25519 -3.12055,7.99633 -6.75182,2.929554 -32.98233,6.684021 -50.09879,7.170831 -6.61568,0.188163 -18.64418,0.966096 -26.73,1.728747 -8.08583,0.76266 -26.73,1.840869 -41.4315,2.396043 -14.7015,0.555165 -27.6733,1.198944 -28.82623,1.430613 -2.00153,0.402192 -1.89527,0.633699 2.35186,5.124411 8.02577,8.486082 10.28641,15.577407 7.7671,24.364359 -0.81307,2.835846 -2.24914,6.482088 -3.19127,8.102763 -0.94213,1.620675 -1.71296,3.364641 -1.71296,3.875463 0,2.422287 -7.68264,12.581091 -10.66519,14.102676 -4.49806,2.294739 -12.34409,3.57768 -21.87982,3.57768 -6.79299,0 -8.81886,-0.344412 -12.0876,-2.054979 z m 9.34901,-34.868061 c -1.81757,-2.18295 -5.21461,-2.650203 -8.60531,-3.18978 -3.43972,-0.547371 -7.11929,-0.796284 -5.93581,3.51054 0.99962,3.637773 6.54454,6.437025 9.35374,6.43302 9.71011,-0.01377 7.71775,-3.50163 5.18738,-6.75378 z m -16.61715,-64.173243 c 1.59266,-0.37398 2.89575,-0.85118 2.89575,-1.06042 0,-0.20925 -0.90214,-1.60415 -2.00475,-3.0998 l -2.00475,-2.71935 2.2275,-1.72168 c 14.47253,-11.1861 15.09078,-12.06783 13.50385,-19.25899 -0.51559,-2.33638 -1.1824,-7.85653 -1.4818,-12.26698 -0.29939,-4.41045 -1.52303,-12.95715 -2.7192,-18.99268 -1.19617,-6.03552 -2.18913,-13.05214 -2.20659,-15.5925 -0.0175,-2.54035 -0.54323,-6.82404 -1.16838,-9.51932 -0.91201,-3.93202 -0.92538,-8.42225 -0.0676,-22.7205 0.58796,-9.801 0.89678,-23.91329 0.68628,-31.36067 -0.29166,-10.31946 -0.0561,-14.80125 0.99038,-18.83961 0.7552,-2.91441 1.37309,-5.51069 1.37309,-5.76948 0,-2.00277 -14.25012,-3.30415 -37.8675,-3.4582 -11.9755,-0.0781 -16.03967,0.20985 -19.41039,1.37533 -2.34487,0.81078 -5.22472,1.47413 -6.39971,1.47413 -2.48744,0 -2.79261,0.79907 -3.57296,9.3555 -2.4223,26.5605 -11.97908,82.07938 -18.31226,106.38265 -3.56282,13.67217 -3.55663,20.28235 0.0261,27.8556 1.46977,3.10682 2.67262,6.96067 2.673,8.56412 6.1e-4,2.50288 -0.59129,3.29082 -4.18323,5.56875 -2.30118,1.45936 -4.80711,2.66557 -5.56875,2.68048 -1.22891,0.024 -1.23249,0.11634 -0.0318,0.81986 0.74415,0.43601 7.76078,1.23175 15.59251,1.7683 7.83172,0.53655 15.84329,1.1092 17.80349,1.27257 6.55849,0.5466 46.29477,-0.0484 49.22775,-0.73711 z m 10.79625,-173.99997 c 2.56197,-5.03621 5.60673,-15.58391 4.74679,-16.44384 -1.67889,-1.67891 -13.15685,-2.72519 -30.46729,-2.77726 -19.65659,-0.0591 -28.04343,0.97991 -32.28436,3.99973 -2.97238,2.1165 -5.76814,7.26419 -6.5288,12.02111 -0.30105,1.88266 -0.61239,3.82396 -0.69185,4.31401 -0.25548,1.57536 6.40013,1.97202 35.25465,2.10106 l 28.27113,0.12644 1.69973,-3.34125 z m -13.2465,-23.38875 c 0,-0.55857 -4.73704,-0.84107 -12.69675,-0.75718 -8.50072,0.0896 -11.37169,0.33984 -8.68725,0.75718 6.44101,1.00138 21.384,1.00138 21.384,0 z m 13.27684,-10.36252 c 2.33494,-0.46699 2.70972,-0.86991 2.22617,-2.39339 -0.31977,-1.00754 -0.6801,-5.46603 -0.80074,-9.90774 -0.18971,-6.98532 0.0186,-8.33774 1.54312,-10.01525 l 1.76246,-1.93941 -13.53692,0.30966 c -7.44531,0.1703 -13.70199,0.47471 -13.90373,0.67645 -0.20175,0.20175 -0.57194,5.22637 -0.82267,11.16582 l -0.45585,10.79901 3.3509,0.54702 c 1.843,0.30086 3.95234,0.67428 4.68742,0.82983 2.53368,0.53614 13.14874,0.48823 15.94984,-0.072 z"
       style="fill:#e8bd00;fill-opacity:1;display:inline"
       sodipodi:nodetypes="cssssssssssssssssssssssssscccsscccccccsssssssssscsssssssssssssssssccsssccscccsssssssssssssssssssssccsssssccccssccsscccscccsc" />
    <path
       id="path6503-3"
       d="m 233.18819,-86.375461 c -138.317914,-2.322612 -129.20522,-4.417857 -147.08125,-9.915867 -9.681912,-2.485224 -11.549349,-4.928072 -10.880532,-8.968302 0.998082,-6.02924 6.109425,-16.99205 13.885821,-23.95589 16.712051,-14.96584 30.742851,-26.19914 35.038151,-31.74743 5.94771,-7.68274 14.74478,-25.18474 18.79658,-37.39626 4.44845,-13.40696 11.53162,-48.14944 16.83852,-82.59174 1.34806,-8.74913 2.93154,-16.47669 3.51884,-17.17236 0.58729,-0.69568 1.09025,-3.35451 1.11779,-5.9085 0.11041,-10.25975 7.04457,-24.0163 12.82223,-25.43784 1.22372,-0.30107 2.42267,-1.28864 2.66434,-2.19457 0.60439,-2.26566 11.29599,-4.70468 23.62294,-5.389 8.17808,-0.45398 9.76995,-0.79461 10.57099,-2.26186 0.51869,-0.95006 1.19005,-6.85197 1.49194,-13.11535 0.73763,-15.30353 0.35887,-14.91231 14.69406,-15.17737 4.25892,-1.01303 26.03285,0.72287 23.20497,-5.66599 0.3931,-1.34347 2.10593,-14.57048 2.40367,-29.11837 0.41891,-20.469 -1.46609,-26.56514 -0.48127,-27.72675 1.51249,-1.78395 9.62991,-1.94123 10.65093,-0.36479 0.40476,0.62494 1.29408,11.64892 1.13469,23.39775 -0.33663,24.81378 -3.93192,35.03336 12.69551,37.9782 19.67521,1.61019 24.30492,-4.32552 23.72175,14.07822 -0.49293,15.5557 6.46282,15.84661 8.38673,16.29295 13.15209,1.23335 19.66329,1.06053 29.82478,6.41543 5.48713,2.5704 10.90126,17.3383 11.94035,27.7362 0.27479,2.74972 0.84737,5.66519 1.27239,6.47881 0.42504,0.81363 1.64804,7.1539 2.71781,14.0895 3.43636,22.27896 11.02543,63.2371 13.45272,72.60419 3.68472,14.21954 5.80296,20.06724 11.63368,32.11618 8.52486,17.61629 9.0331,18.20331 44.59616,51.51182 6.84604,6.412 12.85661,15.16877 14.84886,21.63347 0.93514,3.03438 0.84798,3.66091 -0.71883,5.1629 -0.49039,0.4701 -1.12646,3.145917 -11.33767,4.68615 -10.21119,1.540251 -39.08475,6.126327 -67.67559,7.871733 -60.9507,3.978216 -81.51245,-0.562491 -74.34951,5.53482 18.53387,15.776586 8.23175,27.862551 5.09204,34.648425 -5.29037,11.434131 -8.54905,16.184394 -12.43603,18.128304 -4.81036,2.405727 -12.89977,3.687696 -23.2698,3.687696 -8.15084,0 -9.25641,-0.214731 -12.87018,-2.49975 -4.04274,-2.556261 -11.286,-12.309525 -16.43715,-22.133106 -5.13037,-9.783945 -5.0428,-19.840635 4.25247,-30.368097 5.6701,-9.136152 5.41632,-3.719646 0.6461,-4.943556 z M 96.978301,-105.79684 c 0,2.69854 110.593349,15.635664 159.018379,10.465668 5.52231,-0.589572 -0.79284,21.492531 -13.30464,24.232419 -15.55149,3.405519 2.16834,47.255238 16.89719,36.469008 25.66059,-18.791748 16.21541,-32.322852 10.09923,-33.75936 -10.83169,-2.544048 -18.46304,-13.107726 -2.24869,-25.901775 -3.8123,-1.089882 155.13721,-3.316509 155.6765,-15.1922 0.27743,-6.10896 -3.16941,-4.91465 -7.33906,-6.89336 -6.46262,-3.06687 -20.35814,-6.09222 -35.79585,-7.79358 -11.73572,-1.29336 -18.45577,-1.47093 -31.85174,-2.45782 27.37757,-3.2579 42.05648,-5.57856 42.04906,-6.98251 0,-0.29541 -1.95394,-1.55973 -4.33883,-2.8096 -6.55637,-3.43609 -7.56605,-5.37167 -8.53501,-16.362 -0.683,-7.74688 -4.32229,-12.01697 -8.46286,-24.22357 -6.20811,-18.30176 -12.96958,-25.87122 -16.55882,-46.07093 -2.73544,-15.39466 -13.94646,-45.00504 -15.94192,-58.72995 -0.57721,-3.97015 -0.45419,-10.80142 -0.85993,-11.84759 -0.82844,-2.13601 3.26086,-4.90251 -5.10892,-6.00126 -4.66112,-0.61189 -15.29241,-1.18271 -12.74996,-1.80635 1.52999,-0.37529 8.92388,-0.719 11.79935,-1.04431 7.86572,-0.42835 8.55633,-2.22886 6.11811,-7.60836 -2.30033,-7.01144 -4.55335,-8.91945 -8.88204,-11.08427 -4.02672,-2.0138 -8.74055,-4.56469 -23.87217,-4.83672 -7.83096,-0.14078 -21.96868,-1.56108 -17.61814,-2.28486 2.54999,-0.42423 23.72654,-1.02343 29.20903,-1.33155 6.05901,-0.34053 -6.08976,-3.44989 -6.08976,-4.03689 0.31048,0.085 -15.4546,-0.21251 -16.33417,-7.03365 -0.27163,-2.10649 -0.0473,-15.43672 -2.75491,-18.35867 -2.70755,-2.92194 -15.35579,-4.13298 -19.74309,-6.31295 -6.2498,-3.10543 -7.36101,-5.62192 -8.33764,-14.46005 -0.35923,8.3141 -0.8091,3.15737 -3.77979,11.24597 -6.37098,4.37561 -19.79115,2.10791 -21.13739,2.12035 -6.27518,0.058 -10.33399,0.49861 -11.30328,1.22686 -1.17198,0.88053 -1.65784,3.54403 -2.15894,11.83493 -0.57537,9.52003 -0.46526,10.89509 0.99945,12.48169 1.30834,1.4172 1.41727,2.05327 0.53094,3.10019 -1.54633,1.8265 1.36158,3.24775 8.12508,3.97116 l 5.25223,0.56176 -3.70908,0.67562 c -2.03999,0.37159 -11.74156,0.6992 -21.55904,0.72801 -10.67966,0.0314 -17.84997,0.40099 -17.84997,0.9202 0,0.47729 1.56477,1.12274 3.47727,1.43432 5.96591,0.97196 6.47427,1.57873 2.08635,2.49028 -9.0646,1.88307 -11.15022,2.61592 -13.90019,4.88427 -3.50066,2.88758 -5.54472,6.59183 -7.01533,12.71336 -1.28658,5.3554 -0.93119,6.30736 2.68699,7.19757 l 2.61648,0.64376 -2.81447,2.51998 c -1.54798,1.38599 -3.26718,2.6679 -3.82049,2.8487 -0.56065,0.18321 -1.99164,7.76771 -3.23263,17.13358 -7.17126,54.1221 -12.65121,81.62064 -21.04304,105.5947 -3.74274,10.69199 -3.91234,11.64152 -3.74089,20.92736 0.0988,5.34995 -0.2189,10.75469 -0.70598,12.01055 -1.29743,3.34529 -7.54887,6.88302 -12.29826,6.95965 -2.17763,0.0352 -4.77866,0.37792 -5.78007,0.76173 -1.66622,0.63863 -1.61628,0.74815 0.58848,1.29061 3.39391,0.83504 29.33218,3.9904 38.89248,4.73125 10.74697,0.83278 12.6656,2.20565 3.13971,2.24656 -17.0815,0.0734 -51.50371,5.01302 -60.2137,8.6407 -7.90137,3.29091 -16.471619,4.76427 -16.471619,10.16137 z"
       style="fill:#544832;fill-opacity:1;display:inline"
       sodipodi:nodetypes="ccssssssssssssccsssscsccssssssssscsssscscccsssscssscsssssssssccsssscsssccssssscccsssssscccssssssssssss" />
    <path
       sodipodi:type="arc"
       style="fill:none;stroke:#010101;stroke-width:10;stroke-linecap:butt;stroke-linejoin:miter;stroke-miterlimit:4;stroke-opacity:1;stroke-dasharray:none;filter:url(#filter8888)"
       id="path8111"
       sodipodi:cx="709.5"
       sodipodi:cy="236.5"
       sodipodi:rx="187.5"
       sodipodi:ry="187.5"
       d="m 897,236.5 a 187.5,187.5 0 1 1 -375,0 187.5,187.5 0 1 1 375,0 z"
       transform="matrix(0.9,0,0,0.9,122.95,-431.35)"
       inkscape:export-xdpi="72"
       inkscape:export-ydpi="72" />
    <path
       sodipodi:type="arc"
       style="fill:none;stroke:#010101;stroke-width:11.11111069000000029;stroke-linecap:butt;stroke-linejoin:miter;stroke-miterlimit:4;stroke-opacity:1;stroke-dasharray:none;filter:url(#filter8868)"
       id="path8111-5"
       sodipodi:cx="709.5"
       sodipodi:cy="236.5"
       sodipodi:rx="187.5"
       sodipodi:ry="187.5"
       d="m 897,236.5 a 187.5,187.5 0 1 1 -375,0 187.5,187.5 0 1 1 375,0 z"
       transform="matrix(0.81,0,0,0.81,186.805,-410.065)"
       inkscape:export-filename="/home/justin/projects/ringtoggle/raw/path8111-3.png"
       inkscape:export-xdpi="72"
       inkscape:export-ydpi="72" />
    <path
       sodipodi:type="arc"
       style="fill:#00ff00;fill-opacity:1;stroke:#010101;stroke-width:10;stroke-linecap:butt;stroke-linejoin:miter;stroke-miterlimit:4;stroke-opacity:1;stroke-dasharray:none;filter:url(#filter8848)"
       id="path8111-3"
       sodipodi:cx="709.5"
       sodipodi:cy="236.5"
       sodipodi:rx="187.5"
       sodipodi:ry="187.5"
       d="m 897,236.5 a 187.5,187.5 0 1 1 -375,0 187.5,187.5 0 1 1 375,0 z"
       transform="matrix(0.45,0,0,0.45,442.225,-324.925)"
       inkscape:export-xdpi="72"
       inkscape:export-ydpi="72" />
  </g>
</svg>
